<svg width="40" height="40" viewBox="0 0 40 40" fill="none" xmlns="http://www.w3.org/2000/svg" data-seed-icon="true" data-seed-icon-version="0.3.4">
  <g>
    <g>
      <path fill-rule="evenodd" clip-rule="evenodd" d="M32.9507 7.62819V6.08646H32.9474C32.9375 5.48632 32.4704 5 31.8947 5C31.3191 5 30.852 5.48632 30.8421 6.08646H30.8388V7.62819H28.0362V6.08646C28.023 5.48632 27.5592 5 26.9836 5C26.4046 5 25.9375 5.48632 25.9276 6.08646V7.62819H23.6349V6.08646C23.6217 5.48632 23.1579 5 22.5789 5C22.0033 5 21.5395 5.48632 21.5263 6.08646V7.62819H19V20H35V7.62819H32.9507ZM32.4737 12.9294H29.9474V10.2805H32.4737V12.9294ZM32.4737 17.358H29.9474V14.6953H32.4737V17.358ZM28.2632 12.9294H25.7368V10.2805H28.2632V12.9294ZM28.2632 17.358H25.7368V14.6953H28.2632V17.358ZM24.0526 12.9294H21.5263V10.2805H24.0526V12.9294ZM24.0526 17.358H21.5263V14.6953H24.0526V17.358Z" fill="currentColor"/>
      <path d="M12.0015 16.6665C13.6559 16.6665 15 15.3224 15 13.665C15 12.0106 13.6559 10.6665 12.0015 10.6665C10.3441 10.6665 9 12.0106 9 13.665C9 15.3224 10.3441 16.6665 12.0015 16.6665Z" fill="currentColor"/>
      <path d="M11.9951 19.0063H12.0049C14.7633 19.0063 17 21.2362 17 23.9933V33.9998H7V23.9933C7 21.2362 9.23671 19.0063 11.9951 19.0063Z" fill="currentColor"/>
    </g>
  </g>
</svg>
