<svg width="40" height="40" viewBox="0 0 40 40" fill="none" xmlns="http://www.w3.org/2000/svg" data-seed-icon="true" data-seed-icon-version="0.3.4">
  <g>
    <g>
      <path d="M15.461 25.7944H23.0729V19.9138H24.7711C25.2388 19.9138 25.6169 19.5407 25.6169 19.0793C25.6169 18.6179 25.2388 18.2448 24.7711 18.2448H23.0729V18.2416H9.54062V18.2448H7.84245C7.37811 18.2448 7 18.6179 7 19.0793C7 19.5407 7.37811 19.9138 7.84245 19.9138H9.54062V29.0996C9.54062 29.9864 10.2438 30.7064 11.1327 30.7587V30.7685H15.461V27.4568" fill="currentColor"/>
      <path d="M25.816 27.457H17.146V33.1151C17.146 34.1164 17.942 34.928 18.9404 34.9869V35H25.4478C26.5025 35 27.3582 34.1557 27.3582 33.1151H27.3549V29.1194H35V27.4537H25.816" fill="currentColor"/>
      <path d="M14.6285 7.76987C14.6285 6.84377 15.388 6.0911 16.3267 6.0911C17.2653 6.0911 18.0248 6.84377 18.0248 7.76987C18.0248 8.69598 17.2653 9.44537 16.3267 9.44537C15.388 9.44537 14.6285 8.69598 14.6285 7.76987ZM20.2205 7.85168C20.2205 5.72459 18.4759 4 16.3234 4C14.1675 4 12.4229 5.72459 12.4229 7.85168C12.4229 11.2518 16.3234 16.5662 16.3234 16.5662C16.3234 16.5662 20.2205 11.2518 20.2205 7.85168Z" fill="currentColor"/>
    </g>
  </g>
</svg>
