<svg width="40" height="40" viewBox="0 0 40 40" fill="none" xmlns="http://www.w3.org/2000/svg" data-seed-icon="true" data-seed-icon-version="0.3.4">
  <g>
    <g>
      <path d="M24.7155 25.9581C24.3579 26.5213 23.2979 27.761 22.7392 28.149C21.6984 28.8771 20.4948 29.2617 19.256 29.2617C17.0722 29.2617 15.0608 28.0838 13.8731 26.1161C11.9671 22.9499 12.81 18.6744 15.7536 16.5865C16.4273 16.1092 17.5415 15.6628 18.56 15.2747C11.5968 15.4052 6 19.66 6 24.897C6 27.16 7.0472 29.2342 8.7904 30H28.9777L33.3804 23.1696C33.3804 23.1696 31.5925 21.2569 28.933 19.3166L24.7155 25.9581Z" fill="currentColor"/>
      <path d="M25.5364 15.1925L25.5077 15.1444L24.1795 15.5633C22.5193 16.0201 19.879 16.755 19.4863 16.9061C19.1031 17.0537 18.305 17.3456 17.6154 17.6616C17.4078 17.744 17.2067 17.847 17.0087 17.9638C16.897 18.0256 16.798 18.0874 16.7118 18.1492C16.7054 18.1526 16.7022 18.1561 16.6991 18.1595C14.544 19.6739 13.9342 22.7749 15.3326 25.0998C15.4348 25.268 15.5465 25.426 15.6614 25.5771C15.6997 25.6217 15.7381 25.6664 15.7764 25.711C15.8594 25.814 15.9488 25.9136 16.0414 26.0098C16.0861 26.0544 16.1276 26.0956 16.1723 26.1403C16.2712 26.233 16.3766 26.3223 16.482 26.4081C16.5203 26.4356 16.5554 26.4665 16.5937 26.494C16.7374 26.6039 16.8874 26.7035 17.0407 26.7893C17.0694 26.8065 17.1013 26.8237 17.1333 26.8374C17.2578 26.9061 17.3855 26.9713 17.5164 27.0263C17.5707 27.0503 17.6217 27.0709 17.676 27.0881C17.791 27.1362 17.9091 27.1739 18.0272 27.2083C18.0815 27.2254 18.1326 27.2426 18.1868 27.2563C18.3305 27.2907 18.471 27.3182 18.6147 27.3388C18.6434 27.3422 18.6721 27.3525 18.7009 27.3559C18.8733 27.3765 19.0457 27.3868 19.2213 27.3903C19.234 27.3903 19.2468 27.3903 19.2564 27.3903C19.2851 27.3903 19.3139 27.3868 19.3394 27.3868C19.499 27.38 19.6619 27.3697 19.8215 27.3491C19.8694 27.3422 19.9205 27.3353 19.9684 27.3285C20.1599 27.2976 20.3515 27.2563 20.5398 27.1945C20.5654 27.1877 20.5909 27.1774 20.6165 27.1705C20.7825 27.1156 20.9485 27.0469 21.1113 26.9713C21.1592 26.9507 21.2071 26.9267 21.255 26.8992C21.437 26.8065 21.619 26.7035 21.7946 26.5833C22.2479 26.2673 22.6311 25.8759 22.9439 25.4397L22.9471 25.4432L23.0078 25.347C23.078 25.244 23.1451 25.1375 23.2089 25.0311L27.3818 18.448L27.6595 18.0118L25.5364 15.1925Z" fill="currentColor"/>
      <path d="M32.8243 10L27.8472 14.2017L27.2856 14.677L28.4613 16.2134L34 11.5364" fill="currentColor"/>
    </g>
  </g>
</svg>
