<svg width="40" height="40" viewBox="0 0 40 40" fill="none" xmlns="http://www.w3.org/2000/svg" data-seed-icon="true" data-seed-icon-version="0.3.4">
  <g>
    <g>
      <path d="M30.9011 17.586L31.9812 17.3629C32.0063 17.3573 32.0063 17.3211 31.9812 17.3155L30.8648 17.0841C29.5671 16.8164 28.5484 15.8071 28.2721 14.5134L28.0237 13.3591C28.0181 13.3312 27.9819 13.3312 27.9763 13.3591L27.7307 14.5134C27.4516 15.8071 26.4329 16.8164 25.1352 17.0841L24.0188 17.3155C23.9937 17.3211 23.9937 17.3573 24.0188 17.3629L25.0989 17.586C26.4218 17.8592 27.4544 18.8853 27.7363 20.2013L27.9763 21.3193C27.9819 21.3444 28.0181 21.3444 28.0237 21.3193L28.2637 20.2013C28.5456 18.8853 29.581 17.8592 30.9011 17.586Z" fill="currentColor"/>
      <path d="M27.8993 8.24648L28.9791 8.02348C29.007 8.01791 29.007 7.98167 28.9791 7.97609L27.863 7.74473C26.5656 7.47714 25.55 6.46808 25.271 5.1747L25.0227 4.02069C25.0171 3.99282 24.9808 3.99282 24.978 4.02069L24.7297 5.1747C24.4507 6.46808 23.4323 7.47714 22.1349 7.74473L21.0188 7.97609C20.9937 7.98167 20.9937 8.01791 21.0188 8.02348L22.1014 8.24648C23.4211 8.51965 24.4535 9.54543 24.7353 10.8611L24.978 11.9789C24.9808 12.0068 25.0171 12.0068 25.0227 11.9789L25.2626 10.8611C25.5444 9.54543 26.5796 8.51965 27.8993 8.24648Z" fill="currentColor"/>
      <path d="M14.4616 34.9998H20.806C21.3366 33.1313 21.6426 31.0024 21.6426 28.7172C21.6426 26.699 21.3984 24.7947 20.9785 23.089L20.9883 23.0955L20.946 22.9555C20.7734 22.2817 20.5716 21.6372 20.3438 21.0349L17.3359 11.9998H13.3066C13.3066 11.9998 13.3587 19.1925 13.3522 19.1958C11.0996 19.824 9 21.3279 9 24.3097V34.9998" fill="currentColor"/>
      <path d="M8 14.5675H10V9.99979H19V9.11502C19 7.39301 17.722 5.99979 16 5.99979H8V9.89301" fill="currentColor"/>
    </g>
  </g>
</svg>
