<svg width="40" height="40" viewBox="0 0 40 40" fill="none" xmlns="http://www.w3.org/2000/svg" data-seed-icon="true" data-seed-icon-version="0.3.4">
  <g>
    <path d="M22.4568 22.0636C22.3537 22.2189 19.9936 24.7961 19.9936 24.7961C19.9936 24.7961 17.6431 22.2189 17.5432 22.0636C17.2856 21.6674 17.2856 21.1697 17.5143 20.7513C17.7332 20.3487 18.1421 20.0951 18.6026 20.0729C18.6283 20.0697 18.6541 20.0697 18.6799 20.0697C19.2337 20.0697 19.7328 20.3772 19.9936 20.8369C20.2544 20.3772 20.7631 20.0697 21.3201 20.0697C21.3427 20.0697 21.3717 20.0697 21.3942 20.0729C21.8579 20.0951 22.2636 20.3487 22.4825 20.7513C22.7111 21.1697 22.7144 21.6674 22.4568 22.0636ZM17.5239 9.05431C17.5239 7.70393 18.638 6.60714 20.0064 6.60714C21.3781 6.60714 22.4922 7.70393 22.4922 9.05431V12.3003H17.5239V9.05431ZM29.9011 19.5847V19.5657C26.7231 19.5657 24.1279 17.0298 24.1279 13.9011V9.05431C24.1279 6.81319 22.2829 5 20.0064 5C17.7332 5 15.8882 6.81319 15.8882 9.05431V13.9011C15.8882 17.0298 13.322 19.5657 10.144 19.5657C10.1343 19.5657 10.1279 19.5626 10.1182 19.5626V19.5847C7.84177 19.5847 6 21.4011 6 23.6391V27.6934H7.63569V23.6391C7.63569 22.2918 8.74977 21.1951 10.1182 21.1951V35H29.9011V21.1951C31.2599 21.2077 32.3643 22.2982 32.3643 23.6391V27.6934H34V23.6391C34 21.4074 32.1647 19.5974 29.9011 19.5847Z" fill="currentColor"/>
  </g>
</svg>
