<svg width="40" height="40" viewBox="0 0 40 40" fill="none" xmlns="http://www.w3.org/2000/svg" data-seed-icon="true" data-seed-icon-version="0.3.4">
  <g>
    <g>
      <path d="M13.4741 27.9585L15.616 34.0002H17.6408L15.2287 27.2651C14.7306 27.646 14.1317 27.8934 13.4741 27.9585Z" fill="currentColor"/>
      <path d="M7.75439 34.0002H9.78239L12.673 27.9487C12.0317 27.8641 11.4491 27.6102 10.9673 27.2261" fill="currentColor"/>
      <path d="M5 19.9798L5.97656 22.5319L25.1042 18.2253L21.8815 9.81055L5 19.9798Z" fill="currentColor"/>
      <path d="M14.9419 24.5534C14.9419 23.5475 14.1281 22.7305 13.1222 22.7305C12.1164 22.7305 11.2993 23.5475 11.2993 24.5534C11.2993 25.5592 12.1164 26.373 13.1222 26.373C14.1281 26.373 14.9419 25.5592 14.9419 24.5534Z" fill="currentColor"/>
      <path d="M30.998 12C30.4471 12 30 12.4471 30 13.002C30 13.5529 30.4471 14 30.998 14C31.5529 14 32 13.5529 32 13.002C32 12.4471 31.5529 12 30.998 12Z" fill="currentColor"/>
      <path d="M26.002 7C25.4471 7 25 7.44711 25 8.002C25 8.55289 25.4471 9 26.002 9C26.5529 9 27 8.55289 27 8.002C27 7.44711 26.5529 7 26.002 7Z" fill="currentColor"/>
      <path d="M33 8C32.4502 8 32 8.44711 32 8.998C32 9.55289 32.4502 10 33 10C33.5498 10 34 9.55289 34 8.998C34 8.44711 33.5498 8 33 8Z" fill="currentColor"/>
    </g>
  </g>
</svg>
