<svg width="40" height="40" viewBox="0 0 40 40" fill="none" xmlns="http://www.w3.org/2000/svg" data-seed-icon="true" data-seed-icon-version="0.3.4">
  <g>
    <g>
      <path d="M22.1795 24.667C22.3516 24.7357 22.5266 24.8008 22.7037 24.8625C22.7922 24.8935 22.8837 24.9244 22.9752 24.9525C23.3353 25.0678 23.7012 25.1747 24.082 25.2619C24.0986 25.2639 24.1167 25.2687 24.1342 25.2733L24.144 25.2759L24.1558 25.2788C24.5571 25.3688 24.9733 25.4307 25.3953 25.4813C25.4957 25.4953 25.596 25.5038 25.6993 25.5122C26.1273 25.5572 26.5611 25.5854 27.0068 25.5854L33.0158 28.7607L31.0207 24.9694C31.9031 24.6882 32.7148 24.3169 33.4408 23.8725C35.4359 22.6463 36.7641 20.866 36.9707 18.855C36.9913 18.6722 37.0002 18.4866 37.0002 18.301C37.0002 14.2791 32.5259 11.0166 27.0097 11.0166C26.7057 11.0166 26.4077 11.0307 26.1096 11.0504C26.0668 11.0532 26.024 11.0567 25.9812 11.0602C25.9384 11.0637 25.8956 11.0672 25.8528 11.07C25.6344 11.0897 25.416 11.1122 25.2005 11.1404C25.1607 11.1471 25.1208 11.1526 25.0812 11.158C25.0388 11.1639 24.9968 11.1696 24.9556 11.1769C24.687 11.2163 24.4243 11.2641 24.1676 11.3204C24.1498 11.3232 24.1321 11.326 24.1144 11.3316C23.8222 11.3935 23.5389 11.4694 23.2556 11.5538C23.2261 11.5622 23.1966 11.5707 23.167 11.5819C22.9162 11.6579 22.6742 11.7422 22.4351 11.8322C22.3997 11.8435 22.3643 11.8575 22.3288 11.8716C22.2288 11.9103 22.13 11.9503 22.0325 11.9915C23.9418 13.5809 25.2671 15.7945 25.2671 18.3883C25.2671 20.9135 24.0105 23.0856 22.1795 24.667Z" fill="currentColor"/>
      <path d="M15.022 18.3011C15.022 20.9217 16.3865 23.1437 18.3354 24.7215C18.2578 24.7557 18.1794 24.7886 18.0993 24.8206C17.9871 24.8684 17.872 24.9134 17.7569 24.9556C17.6005 25.0147 17.4411 25.0709 17.2758 25.1244L17.2021 25.1494C17.1252 25.1756 17.0471 25.2022 16.9689 25.2256C16.7092 25.3044 16.4435 25.3719 16.175 25.4338C16.1261 25.4466 16.0772 25.4558 16.0282 25.465C15.9916 25.4719 15.9549 25.4788 15.9182 25.4872C15.7146 25.5294 15.508 25.5688 15.2955 25.6025C15.2036 25.6175 15.1095 25.6303 15.0171 25.6428L14.9826 25.6475C14.776 25.6756 14.5665 25.6981 14.354 25.7178L14.0647 25.7431C13.7607 25.7628 13.4508 25.7769 13.138 25.7769L7.04339 29L9.06214 25.1525C8.17082 24.8656 7.34739 24.4916 6.60954 24.0388C6.24357 23.8138 5.89826 23.5691 5.57656 23.3075C5.41423 23.1753 5.26076 23.0403 5.11614 22.9025C3.78802 21.6538 3 20.09 3 18.3884C3 14.8166 6.47378 11.8381 11.0897 11.1491C11.7508 11.0506 12.4326 11 13.1321 11C13.442 11 13.743 11.0141 14.0441 11.0338C14.0902 11.0367 14.1354 11.0404 14.1803 11.044C14.2217 11.0474 14.2628 11.0507 14.3038 11.0534C14.5281 11.0731 14.7465 11.0984 14.9649 11.1266C14.9925 11.1303 15.02 11.1337 15.0475 11.1372C15.1026 11.1441 15.1577 11.1509 15.2128 11.1603C15.4814 11.2025 15.7441 11.2475 16.0038 11.3038C16.0245 11.3094 16.0422 11.3122 16.0628 11.315C16.3609 11.3825 16.6531 11.4584 16.9364 11.5428C16.95 11.546 16.9626 11.5502 16.9747 11.5542C16.9837 11.5572 16.9926 11.5601 17.0014 11.5625C17.264 11.6441 17.5208 11.7313 17.7717 11.8241C17.8041 11.8353 17.8336 11.8466 17.8632 11.8606C17.9741 11.9033 18.084 11.9479 18.1926 11.9941C16.3195 13.5644 15.022 15.7469 15.022 18.3011Z" fill="currentColor"/>
      <path d="M17.022 18.3009C17.022 20.4187 18.2675 22.3171 20.2449 23.6474C22.1072 22.3087 23.2671 20.4468 23.2671 18.3881C23.2671 16.2815 22.0511 14.3859 20.1121 13.0415C18.2114 14.3662 17.022 16.2309 17.022 18.3009Z" fill="currentColor"/>
    </g>
  </g>
</svg>
