<svg width="40" height="40" viewBox="0 0 40 40" fill="none" xmlns="http://www.w3.org/2000/svg" data-seed-icon="true" data-seed-icon-version="0.3.4">
  <g>
    <path d="M27.7824 11.6001L25.6308 17.0927C25.6212 17.1082 25.618 17.1268 25.6116 17.1423L25.6052 17.1516C25.4579 17.462 25.1345 17.6823 24.7535 17.6823C24.2349 17.6823 23.8186 17.2758 23.8186 16.7731C23.8186 16.7451 23.8218 16.7172 23.825 16.6924L23.8186 16.6893L24.936 10.3309C24.2829 10.1167 23.6105 9.94296 22.919 9.80952L20.0662 17.0927C20.0598 17.1082 20.0534 17.1268 20.047 17.1423L20.0406 17.1516C19.8901 17.462 19.5668 17.6823 19.189 17.6823C18.6735 17.6823 18.2509 17.2758 18.2509 16.7731C18.2509 16.7451 18.2573 16.7172 18.2605 16.6924L18.2509 16.6893L19.5187 9.50851C18.8016 9.52093 18.0972 9.57368 17.4088 9.66678L14.4985 17.0927C14.4953 17.1082 14.4889 17.1268 14.4793 17.1423L14.4761 17.1516C14.3288 17.462 14.0022 17.6823 13.6244 17.6823C13.1089 17.6823 12.6863 17.2758 12.6863 16.7731C12.6863 16.7451 12.6927 16.7172 12.6959 16.6924L12.6863 16.6893L13.7557 10.6257C8.45364 12.6986 4.74927 17.4433 4.74927 22.9608C4.74927 25.3409 5.44084 27.5721 6.65108 29.5085H32.8475C34.0545 27.5721 34.7493 25.3409 34.7493 22.9608C34.7493 18.1819 31.967 13.9864 27.7824 11.6001Z" fill="currentColor"/>
  </g>
</svg>
