<svg width="40" height="40" viewBox="0 0 40 40" fill="none" xmlns="http://www.w3.org/2000/svg" data-seed-icon="true" data-seed-icon-version="0.3.4">
  <g>
    <g>
      <path d="M24.1864 19.0736C24.1864 19.0736 30.1174 12.4883 30.3778 12.0879C31.0223 11.082 31.0191 9.80925 30.4462 8.74154C29.8928 7.71289 28.8707 7.06185 27.7118 7.00326C27.6467 7 27.5816 7 27.5165 7C26.12 7 24.8407 7.78125 24.1864 8.95638C23.5289 7.78125 22.2756 7 20.8791 7C20.814 7 20.7489 7 20.6871 7.00326C19.525 7.06185 18.5061 7.71289 17.9527 8.74154C17.3798 9.80925 17.3733 11.082 18.021 12.0879C18.2782 12.4883 24.1864 19.0736 24.1864 19.0736Z" fill="currentColor"/>
      <path d="M34.8117 23.0122C34.0923 21.3586 32.5526 21.505 31.5565 21.938L26.0129 24.7407H19.7303L21.8722 23.826C21.8722 23.826 21.8527 23.8293 21.8202 23.8325C22.6177 23.5168 23.1841 22.7388 23.1841 21.8273C23.1841 20.6392 22.2173 19.6724 21.0259 19.6724C20.6906 19.6724 20.3683 19.7505 20.0851 19.8905L11 22.8755V30.4797H24.2257C24.509 30.4797 24.9679 30.3462 25.4172 30.0858L33.4608 26.1014C33.9784 25.8768 35.5343 24.6691 34.8117 23.0122Z" fill="currentColor"/>
      <path d="M5 21.8237H9V31.0002H5V21.8237Z" fill="currentColor"/>
    </g>
  </g>
</svg>
