<svg width="40" height="40" viewBox="0 0 40 40" fill="none" xmlns="http://www.w3.org/2000/svg" data-seed-icon="true" data-seed-icon-version="0.3.4">
  <g>
    <g>
      <path d="M24 21.4187V7H26V22.7179C25.4705 22.196 24.8448 21.7738 24.1491 21.478C24.1101 21.4612 24.0735 21.4468 24.0402 21.4347C24.0268 21.4293 24.0134 21.424 24 21.4187Z" fill="currentColor"/>
      <path d="M24 23.6589C23.7981 23.5254 23.5832 23.41 23.3573 23.3146L23.3526 23.3128C23.3496 23.3119 23.3465 23.3113 23.3434 23.3103L23.3386 23.3084C23.2765 23.2827 23.2137 23.2584 23.1501 23.2357C22.7284 23.0847 22.2738 23 21.8027 23C21.5255 23 21.2576 23.028 20.9959 23.081C19.1766 23.4548 17.8027 25.0717 17.8027 27C17.8027 27.1469 17.82 27.2914 17.837 27.4334L17.8432 27.486C17.8768 27.7568 17.937 28.0192 18.0213 28.2707C18.4412 29.5237 19.4575 30.5014 20.7367 30.8564C20.8219 30.8801 20.9084 30.901 20.9959 30.919C21.2576 30.972 21.5255 31 21.8027 31C22.3541 31 22.8806 30.8879 23.3573 30.6854C23.837 30.4829 24.2669 30.19 24.6283 29.8287C24.7517 29.7052 24.854 29.5686 24.9571 29.4309L24.9834 29.3956C25.1828 29.1371 25.3604 28.8598 25.4881 28.5545C25.6906 28.0779 25.8027 27.5514 25.8027 27C25.8027 26.5175 25.7169 26.0565 25.5597 25.6274C25.5373 25.5661 25.5134 25.5055 25.4881 25.4455C25.3682 25.1647 25.2077 24.9078 25.0275 24.6643C25.0018 24.6295 24.9756 24.595 24.9492 24.5607C24.9293 24.5355 24.9096 24.51 24.8898 24.4844C24.8846 24.4778 24.8794 24.4711 24.8743 24.4644C24.7967 24.3643 24.7178 24.264 24.6283 24.1745C24.5371 24.0825 24.4416 23.9951 24.342 23.9126C24.2328 23.8221 24.1186 23.7374 24 23.6589Z" fill="currentColor"/>
      <path fill-rule="evenodd" clip-rule="evenodd" d="M16.238 29.2155C16.0518 28.7467 15.9225 28.2491 15.8584 27.7318L15.852 27.6792C15.836 27.5489 15.8027 27.2779 15.8027 27C15.8027 24.1026 17.8634 21.6829 20.5933 21.1219L20.5992 21.1207C20.9881 21.042 21.3889 21 21.8027 21C22.2669 21 22.7183 21.0544 23.1504 21.1546L23.1504 20.8594L17.3626 12.5488H9.11068V19.222H4V29.2155H4.78924C4.78036 29.1605 4.77247 29.1052 4.76558 29.0496L4.76411 29.0374L4.76183 29.0189C4.75254 28.9447 4.7251 28.7254 4.7251 28.5C4.7251 26.3258 6.27057 24.5123 8.31827 24.0916L8.3241 24.0904C8.6149 24.0315 8.91522 24 9.2251 24C9.81826 24 10.3825 24.1183 10.8926 24.3215C10.9218 24.3324 10.9533 24.3449 10.9866 24.3592C11.5236 24.5878 12.005 24.9166 12.4091 25.3237C12.5899 25.5053 12.7592 25.7331 12.7642 25.7398L12.7692 25.7462L12.7742 25.7526C12.9658 26.0006 13.1918 26.331 13.3677 26.7427L13.3711 26.7507C13.5984 27.2894 13.7251 27.8804 13.7251 28.5C13.7251 28.7426 13.7057 28.9817 13.6681 29.2155H16.238ZM11.9525 19.222V15.0716H15.6439L18.5833 19.222H11.9525Z" fill="currentColor"/>
      <path d="M11.6208 29.2155C11.6886 28.989 11.7251 28.7485 11.7251 28.5C11.7251 28.1554 11.655 27.8283 11.5284 27.5284C11.4428 27.3279 11.324 27.1468 11.1916 26.9755L11.1545 26.9278C11.1029 26.861 11.0508 26.7937 10.9911 26.734C10.7652 26.5062 10.4965 26.3232 10.1967 26.1967C10.1947 26.1957 10.1928 26.1952 10.1908 26.1947L10.1881 26.194L10.185 26.1928C9.88904 26.0701 9.56388 26 9.2251 26C9.05181 26 8.88437 26.0175 8.72081 26.0506C7.58374 26.2843 6.7251 27.2948 6.7251 28.5C6.7251 28.5918 6.73589 28.6821 6.7465 28.7709L6.75041 28.8037C6.7679 28.9449 6.797 29.0825 6.83675 29.2155C7.08159 30.0346 7.73016 30.6784 8.55382 30.9089C8.60873 30.9242 8.66442 30.9378 8.72081 30.9494C8.87414 30.9804 9.0309 30.9977 9.19268 30.9998C9.20346 30.9999 9.21427 31 9.2251 31C9.52665 31 9.81627 30.9463 10.0835 30.8481C10.1217 30.8341 10.1594 30.8192 10.1967 30.8033C10.459 30.6926 10.6975 30.5386 10.9044 30.3506C10.9339 30.3237 10.9628 30.2961 10.9911 30.2679C11.0682 30.1908 11.1321 30.1053 11.1965 30.0193L11.213 29.9973C11.3376 29.8357 11.4486 29.6624 11.5284 29.4716C11.5637 29.3885 11.5946 29.3031 11.6208 29.2155Z" fill="currentColor"/>
      <path d="M30 17H28V30H36V28H30V17Z" fill="currentColor"/>
    </g>
  </g>
</svg>
