<svg width="40" height="40" viewBox="0 0 40 40" fill="none" xmlns="http://www.w3.org/2000/svg" data-seed-icon="true" data-seed-icon-version="0.3.4">
  <g>
    <path d="M26.8725 25.7548C25.9262 25.7548 25.1611 25.0182 25.1611 24.111C25.1611 23.2038 25.9262 22.4704 26.8725 22.4704C27.8188 22.4704 28.5839 23.2038 28.5839 24.111C28.5839 25.0182 27.8188 25.7548 26.8725 25.7548ZM13.1208 25.7548C12.1779 25.7548 11.4094 25.0182 11.4094 24.111C11.4094 23.2038 12.1779 22.4704 13.1208 22.4704C14.0705 22.4704 14.8356 23.2038 14.8356 24.111C14.8356 25.0182 14.0705 25.7548 13.1208 25.7548ZM11.4396 12.1119C11.4396 11.4685 11.9866 10.9442 12.6577 10.9442H27.3725C28.0436 10.9442 28.5906 11.4685 28.5906 12.1119V17.1818C28.5906 17.8252 28.0436 18.3495 27.3725 18.3495H12.6577C11.9866 18.3495 11.4396 17.8252 11.4396 17.1818V12.1119ZM32 18.3527L29.3691 5.99979H10.6309L8 18.3527V29.8821H9.70134V32.3624C9.70134 33.2663 10.4664 33.9998 11.4094 33.9998C12.3523 33.9998 13.1174 33.2663 13.1174 32.3624V29.8821H26.8826V32.3624C26.8826 33.2663 27.6477 33.9998 28.5906 33.9998C29.5336 33.9998 30.2987 33.2663 30.2987 32.3624V29.8821H32" fill="currentColor"/>
  </g>
</svg>
