<svg width="40" height="40" viewBox="0 0 40 40" fill="none" xmlns="http://www.w3.org/2000/svg" data-seed-icon="true" data-seed-icon-version="0.3.4">
  <g>
    <g>
      <path d="M36 29.869V28H4.00317V29.8333C4.00317 29.8482 4 29.8601 4 29.875C4 30.4851 4.51664 30.9762 5.16006 30.997V31H5.19176C5.19493 31 5.1981 31 5.1981 31C5.20127 31 5.20444 31 5.20444 31H34.767V30.997C34.7797 30.997 34.7892 31 34.8019 31C35.4612 31 36 30.497 36 29.875C36 29.872 36 29.872 36 29.869Z" fill="currentColor"/>
      <path d="M20.0321 11.9248L23.0327 8.29404C22.0507 8.09908 21.0398 8 20 8C18.9827 8 17.9878 8.09908 17.025 8.28445V8.28765L20.0321 11.9248Z" fill="currentColor"/>
      <path d="M11.717 10.4001C12.8018 9.70974 13.9828 9.15682 15.2376 8.75411L12.7986 11.7073L11.717 10.4001Z" fill="currentColor"/>
      <path d="M24.9517 8.81788C26.168 9.23017 27.3201 9.77351 28.3727 10.4511L27.3361 11.7071L24.9517 8.81788Z" fill="currentColor"/>
      <path d="M5.47497 26C5.16688 24.8558 5 23.6573 5 22.4204C5 17.9267 7.13736 13.9156 10.4878 11.2725L11.8228 12.8897L10.1348 14.9288C9.87163 15.2484 9.91656 15.7214 10.2375 15.9867C10.3787 16.1017 10.5488 16.1561 10.7157 16.1561C10.9339 16.1561 11.1489 16.0634 11.2997 15.8844L12.7985 14.069L14.294 15.8844C14.4448 16.0634 14.6598 16.1561 14.878 16.1561C15.0481 16.1561 15.2182 16.1017 15.3562 15.9867C15.6771 15.7214 15.7253 15.2484 15.4589 14.9288L13.7741 12.8897L16.3254 9.80227L19.0533 13.107L17.5481 14.9288C17.285 15.2484 17.3299 15.7214 17.6508 15.9867C17.792 16.1017 17.9621 16.1561 18.129 16.1561C18.3472 16.1561 18.5655 16.0634 18.7131 15.8844L20.0289 14.2896L21.3479 15.8844C21.4987 16.0634 21.7137 16.1561 21.932 16.1561C22.0988 16.1561 22.2689 16.1017 22.4101 15.9867C22.7311 15.7214 22.7792 15.2484 22.5128 14.9288L21.0077 13.107L23.7741 9.75752L26.3607 12.8897L24.6727 14.9288C24.4095 15.2484 24.4576 15.7214 24.7786 15.9867C24.9166 16.1017 25.0866 16.1561 25.2567 16.1561C25.475 16.1561 25.69 16.0634 25.8376 15.8844L27.3363 14.069L28.835 15.8844C28.9827 16.0634 29.2009 16.1561 29.4191 16.1561C29.586 16.1561 29.7561 16.1017 29.8973 15.9867C30.2182 15.7214 30.2632 15.2484 30 14.9288L28.3119 12.8897L29.5956 11.3364C32.8979 13.9827 35 17.9651 35 22.4204C35 23.6573 34.8331 24.8558 34.525 26H5.47497Z" fill="currentColor"/>
    </g>
  </g>
</svg>
