<svg width="40" height="40" viewBox="0 0 40 40" fill="none" xmlns="http://www.w3.org/2000/svg" data-seed-icon="true" data-seed-icon-version="0.3.4">
  <g>
    <g>
      <path d="M26.9251 19.4964C26.9251 19.7699 26.7038 19.9912 26.4303 19.9912C26.1569 19.9912 25.9355 19.7699 25.9355 19.4964C25.9355 19.223 26.1569 19.0049 26.4303 19.0049C26.7038 19.0049 26.9251 19.223 26.9251 19.4964Z" fill="currentColor"/>
      <path d="M13.569 19.002C13.2956 19.002 13.0742 19.2266 13.0742 19.5C13.0742 19.7702 13.2956 19.9915 13.569 19.9915C13.8424 19.9915 14.0638 19.7702 14.0638 19.5C14.0638 19.2266 13.8424 19.002 13.569 19.002Z" fill="currentColor"/>
      <path d="M19.5063 26.4303C19.5063 26.1569 19.7277 25.9355 20.0011 25.9355C20.2746 25.9355 20.4927 26.1569 20.4927 26.4303C20.4927 26.7038 20.2746 26.9251 20.0011 26.9251C19.7277 26.9251 19.5063 26.7038 19.5063 26.4303Z" fill="currentColor"/>
      <path d="M20.0011 14.0638C20.2746 14.0638 20.4927 13.8424 20.4927 13.5723C20.4927 13.2988 20.2746 13.0742 20.0011 13.0742C19.7277 13.0742 19.5063 13.2988 19.5063 13.5723C19.5063 13.8424 19.7277 14.0638 20.0011 14.0638Z" fill="currentColor"/>
      <path d="M17.6497 19.0496L19.9349 20.5796L23.4049 16.5269L24.3034 17.2951L20.1465 22.1453L16.9922 20.0295L17.6497 19.0496Z" fill="currentColor"/>
      <path fill-rule="evenodd" clip-rule="evenodd" d="M31.879 10.0033H34.7492C35.4404 10.0033 36 10.5562 36 11.2392C36 11.9223 35.4404 12.4752 34.7492 12.4752H31.879V27.5573C31.879 28.9071 30.7731 30 29.4071 30H10.5303V29.987C9.23349 29.9089 8.20325 28.8584 8.20325 27.5573V12.4752H5.24748C4.55956 12.4752 4 11.9223 4 11.2392C4 10.5562 4.55956 10.0033 5.24748 10.0033H8.20325V10H31.879V10.0033ZM12.0148 19.9821C12.0148 24.3405 15.6025 27.8891 20.0165 27.8891C24.4271 27.8891 28.0181 24.3405 28.0181 19.9821C28.0181 15.6204 24.4271 12.0719 20.0165 12.0719C15.6025 12.0719 12.0148 15.6204 12.0148 19.9821Z" fill="currentColor"/>
    </g>
  </g>
</svg>
