<svg width="40" height="40" viewBox="0 0 40 40" fill="none" xmlns="http://www.w3.org/2000/svg" data-seed-icon="true" data-seed-icon-version="0.3.4">
  <g>
    <g>
      <path d="M13.791 15C15.4476 15 16.791 13.6566 16.791 12C16.791 10.3434 15.4476 9 13.791 9C12.1344 9 10.791 10.3434 10.791 12C10.791 13.6566 12.1344 15 13.791 15Z" fill="currentColor"/>
      <path d="M26.3235 15C27.9793 15 29.322 13.6566 29.322 12C29.322 10.3434 27.9793 9 26.3235 9C24.6648 9 23.322 10.3434 23.322 12C23.322 13.6566 24.6648 15 26.3235 15Z" fill="currentColor"/>
      <path d="M20.1092 22.6733H20.1125C21.6424 22.6733 22.8827 23.9103 22.8827 25.4403V31H17.3423V25.4403C17.3423 23.9103 18.5825 22.6733 20.1092 22.6733Z" fill="currentColor"/>
      <path d="M20.114 16.6733C19.0079 16.6733 18.1125 17.5687 18.1125 18.6719C18.1125 19.7779 19.0079 20.6733 20.114 20.6733C21.2172 20.6733 22.1125 19.7779 22.1125 18.6719C22.1125 17.5687 21.2172 16.6733 20.114 16.6733Z" fill="currentColor"/>
      <path d="M16.1125 18.6719C16.1125 18.3181 16.1585 17.9752 16.2447 17.6486C15.7055 17.2158 15.0652 16.9027 14.3558 16.7612C14.0668 16.7026 13.7677 16.6733 13.4588 16.6733H13.4521C10.9935 16.6733 9 18.6232 9 21.0353V31H15.3423V25.4403C15.3423 23.8379 16.132 22.4221 17.3421 21.5582C16.5841 20.8302 16.1125 19.8063 16.1125 18.6719Z" fill="currentColor"/>
      <path d="M24.8827 25.4403V31H30.9999V21.0321C30.9999 18.6265 29.0064 16.6733 26.5511 16.6733H26.5444C26.2355 16.6733 25.9364 16.7026 25.6474 16.7612C25.1689 16.8589 24.7304 17.0444 24.3217 17.2756C24.1905 17.3505 24.0651 17.4311 23.9435 17.5183C24.0535 17.8836 24.1125 18.2709 24.1125 18.6719C24.1125 19.806 23.6409 20.8304 22.8828 21.5588C24.0929 22.4225 24.8827 23.8375 24.8827 25.4403Z" fill="currentColor"/>
    </g>
  </g>
</svg>
