<svg width="40" height="40" viewBox="0 0 40 40" fill="none" xmlns="http://www.w3.org/2000/svg" data-seed-icon="true" data-seed-icon-version="0.3.4">
  <g>
    <g>
      <path d="M18.3109 9.03119C13.1663 10.0763 9.28119 14.632 9.28119 20.0905C9.28119 24.4133 11.7227 28.1634 15.2913 30.0627L13.6863 32.9294C9.11649 30.4704 6 25.6396 6 20.0905C6 12.8136 11.3513 6.7889 18.3109 5.70174V3L22.6191 7.31631L18.3109 11.6326V9.03119Z" fill="currentColor"/>
      <path d="M26.3169 7.0708C30.8835 9.52987 34 14.3606 34 19.9097C34 27.1866 28.6486 33.2113 21.689 34.2985V37.0002L17.3809 32.6839L21.689 28.3676V30.969C26.8337 29.9239 30.7188 25.3682 30.7188 19.9097C30.7188 15.5869 28.2805 11.8336 24.7086 9.93755L26.3169 7.0708Z" fill="currentColor"/>
    </g>
  </g>
</svg>
