<svg width="40" height="40" viewBox="0 0 40 40" fill="none" xmlns="http://www.w3.org/2000/svg" data-seed-icon="true" data-seed-icon-version="0.3.4">
  <g>
    <g>
      <path d="M16.8386 5L10.5161 6.71161L6.90322 10.9906L6 15.2697L9.61288 18.6929H13.2258L13.9632 18.8333C14.9546 19.0205 15.8649 19.4818 16.5776 20.1571L16.8386 20.4045L18.1935 24.6835L17.2903 27.2509L18.6451 30.6742V32.3858L19.5483 34.0472C19.5483 34.0472 20.2998 35 21.8064 35C23.3094 35 24.0609 34.0472 24.0609 34.0472L28.5805 27.2509V23.8277C28.5805 22.534 29.4096 21.3706 30.6763 20.8926L30.8386 20.8324L31.8935 16.9813H30.3869L28.5805 15.2697L26.7741 10.9906V8.42322L22.258 6.71161L19.5483 7.99532L16.8386 6.23022" fill="currentColor"/>
      <path d="M34 25.5396L31.2903 27.2512V29.8186C31.742 30.3902 32.6452 30.3501 33.0968 29.8186" fill="currentColor"/>
    </g>
  </g>
</svg>
