<svg width="40" height="40" viewBox="0 0 40 40" fill="none" xmlns="http://www.w3.org/2000/svg" data-seed-icon="true" data-seed-icon-version="0.3.4">
  <g>
    <g>
      <path fill-rule="evenodd" clip-rule="evenodd" d="M11.2049 5H16V7H12V28H26V15H28V33.75C28 34.4401 27.4535 35 26.7727 35C26.7651 35 26.7576 34.998 26.7484 34.9955L26.7408 34.9935V35H11.1857V34.9935C10.5273 34.974 10 34.4271 10 33.75V6.25C10 5.56641 10.5369 5.01302 11.2049 5ZM17.5015 31.5C17.5015 32.3275 18.1711 33 19.0015 33C19.829 33 20.4985 32.3275 20.4985 31.5C20.4985 30.6725 19.829 30 19.0015 30C18.1711 30 17.5015 30.6725 17.5015 31.5Z" fill="currentColor"/>
      <path d="M18 5V13H21.2501L20.8751 16L24.5001 13H31.0002V5H18Z" fill="currentColor"/>
    </g>
  </g>
</svg>
