<svg width="40" height="40" viewBox="0 0 40 40" fill="none" xmlns="http://www.w3.org/2000/svg" data-seed-icon="true" data-seed-icon-version="0.3.4">
  <g>
    <path d="M29.4694 27.3153C28.1641 27.3153 27.2038 26.4552 27.1126 25.2531L28.0794 25.0316C28.1283 25.8558 28.6556 26.4487 29.4271 26.4487C30.1107 26.4487 30.5762 26.0219 30.5762 25.429C30.5762 24.8296 30.0846 24.4126 29.5703 24.3963L29.1439 24.38V23.748L29.4954 23.7317C30.0098 23.7121 30.319 23.344 30.319 22.8292C30.319 22.2884 29.9609 21.904 29.4531 21.904C28.8542 21.904 28.4212 22.4285 28.4049 23.1876L27.3861 23.0377C27.4284 21.9105 28.2715 21.0765 29.4531 21.0765C30.5371 21.0765 31.3184 21.7541 31.3184 22.7054C31.3184 23.2853 31.0026 23.7936 30.4948 23.9956V24.0118C31.2272 24.2725 31.6439 24.823 31.6439 25.5235C31.6439 26.5627 30.7357 27.3153 29.4694 27.3153ZM21.9889 18.3497H18.0827V17.5092H19.681V13.6486H19.6745C19.4564 14.0004 19.0495 14.2317 18.5384 14.4077L18.2227 13.4922C18.9551 13.3098 19.4661 12.9579 19.7559 12.4399H20.7064V17.5092H21.9889V18.3497ZM12.0768 25.9894H7.83854V25.416C7.84831 24.3246 8.26497 23.7219 9.37174 23.1648L10.0553 22.8227C10.7064 22.4806 10.9473 22.1646 10.9473 21.6662C10.9473 21.1254 10.5729 20.7638 10.0391 20.7638C9.43034 20.7638 8.97135 21.2329 8.9388 22.106L7.93294 21.9236C7.99805 20.7247 8.8737 19.8972 10.0716 19.8972C11.2142 19.8972 11.9954 20.64 11.9889 21.7085C11.9889 22.5002 11.6309 22.9824 10.6543 23.458L9.89583 23.8424C9.1569 24.2334 8.88021 24.5983 8.88021 25.1912H12.0768V25.9894ZM25.8138 18.3171V9.99979H14.1569V15.8216H5V29.9998H35V18.3171" fill="currentColor"/>
  </g>
</svg>
