<svg width="40" height="40" viewBox="0 0 40 40" fill="none" xmlns="http://www.w3.org/2000/svg" data-seed-icon="true" data-seed-icon-version="0.3.4">
  <g>
    <g>
      <path d="M22.1296 12.2353C22.4674 10.2334 22.4706 7.83306 22.4706 6.73169C22.4706 4.67149 20.8107 3 18.7647 3C16.7188 3 15.0588 4.67149 15.0588 6.73169C15.0588 8.11893 15.6969 8.79357 16.3367 9.47014C16.8309 9.99268 17.3262 10.5164 17.5294 11.3704C17.6098 11.704 17.687 12.0053 17.7643 12.2871C18.4398 11.9502 19.1958 11.7559 20 11.7559C20.7624 11.7559 21.4798 11.9308 22.1296 12.2353Z" fill="currentColor"/>
      <path d="M9.70587 20.9814C7.65992 20.9814 6 19.31 6 17.2498C6 15.1896 7.65992 13.5181 9.70587 13.5181C10.9219 13.5181 13.7334 13.5213 15.8244 13.991C15.2743 14.8008 14.9559 15.7823 14.9559 16.8351C14.9559 17.334 15.0298 17.8166 15.165 18.2734C14.9012 18.3446 14.6213 18.4191 14.3125 18.4937C13.4644 18.6983 12.9443 19.1971 12.4254 19.6947C11.7535 20.339 11.0835 20.9814 9.70587 20.9814Z" fill="currentColor"/>
      <path d="M16.3521 20.3335C15.8985 22.4747 15.8953 24.9884 15.8953 26.634C15.8953 29.5947 18.2854 32.0048 21.2257 32.0113V32.0372C21.2825 32.0359 21.3389 32.0335 21.3951 32.0312C21.4789 32.0277 21.5624 32.0242 21.6471 32.0242C26.6494 32.0242 30.7059 34.2529 30.7059 36.9998H11.7551L12.7202 21.6163C13.0387 21.3733 13.3121 21.1174 13.5502 20.8875C14.0263 20.4339 14.29 20.191 14.6922 20.0938C15.1168 19.9934 15.5157 19.8865 15.8953 19.7764C16.0336 19.974 16.188 20.1586 16.3521 20.3335Z" fill="currentColor"/>
      <path d="M30.294 20.1523C29.0813 20.1523 26.2665 20.1491 24.1787 19.6794C24.7224 18.8696 25.0441 17.8881 25.0441 16.8353C25.0441 16.3364 24.9701 15.8538 24.835 15.397L24.8923 15.3817C25.1415 15.3152 25.4008 15.2459 25.6874 15.1768C26.5375 14.9719 27.0579 14.4727 27.5769 13.9747C28.2481 13.3308 28.9171 12.689 30.294 12.689C32.34 12.689 33.9999 14.3605 33.9999 16.4207C33.9999 18.4809 32.34 20.1523 30.294 20.1523Z" fill="currentColor"/>
      <path d="M22.3343 21.4444L22.3099 21.3477C21.615 21.7072 20.8333 21.9145 20.0001 21.9145C19.2216 21.9145 18.485 21.7299 17.8223 21.4124C17.5328 23.3528 17.5295 25.5847 17.5295 26.6342C17.5295 28.6944 19.1895 30.3659 21.2354 30.3659C23.2814 30.3659 24.9413 28.6944 24.9413 26.6342C24.9413 25.247 24.3033 24.5723 23.6634 23.8958C23.1692 23.3732 22.674 22.8495 22.4707 21.9955C22.4246 21.8016 22.3785 21.6191 22.3343 21.4444Z" fill="currentColor"/>
      <path d="M16.7061 16.8351C16.7061 15.0017 18.1794 13.5181 20.0002 13.5181C21.8209 13.5181 23.2943 15.0017 23.2943 16.8351C23.2943 18.6686 21.8209 20.1522 20.0002 20.1522C18.1794 20.1522 16.7061 18.6686 16.7061 16.8351Z" fill="currentColor"/>
    </g>
  </g>
</svg>
