<svg width="40" height="40" viewBox="0 0 40 40" fill="none" xmlns="http://www.w3.org/2000/svg" data-seed-icon="true" data-seed-icon-version="0.3.4">
  <g>
    <path d="M32.1722 11.4621C31.0978 9.41574 29.1075 8.12586 26.8477 8.00625C26.721 8.00302 26.5942 7.99979 26.4674 7.99979C23.7418 7.99979 21.2507 9.55151 19.9735 11.892C18.6962 9.55151 16.2558 7.99979 13.5302 7.99979C13.4066 7.99979 13.2767 8.00302 13.153 8.00625C10.8933 8.12586 8.90297 9.41574 7.82539 11.4621C6.70979 13.586 6.69711 16.114 7.9585 18.1119C8.46243 18.9103 19.9735 31.9998 19.9735 31.9998C19.9735 31.9998 31.5384 18.9103 32.0391 18.1119C33.3037 16.114 33.291 13.586 32.1722 11.4621Z" fill="currentColor"/>
  </g>
</svg>
