<svg width="40" height="40" viewBox="0 0 40 40" fill="none" xmlns="http://www.w3.org/2000/svg" data-seed-icon="true" data-seed-icon-version="0.3.4">
  <g>
    <path d="M19.9935 30.5291C16.5631 30.5291 15.1694 28.4878 15.3135 25.4639C15.4575 22.4367 17.0354 19.1325 19.9935 19.1325C22.9517 19.1325 24.6703 22.4334 24.6703 25.4639C24.6703 28.4944 23.424 30.5291 19.9935 30.5291ZM31.9533 25.1111C31.9466 24.6758 31.7992 21.8036 29.2431 17.4441C28.5899 16.3263 28.0538 14.2982 27.6585 13.0682C26.9249 10.7863 26.9081 8.534 25.3001 6.59501C24.0002 5.02205 22.0706 3.99979 19.9935 3.99979C18.1577 3.99979 16.419 4.79781 15.146 6.08388C13.7222 7.51834 13.1862 9.39468 12.7808 11.3073C12.3855 13.1704 11.7088 15.792 10.7406 17.4441C8.02034 22.0872 8.03039 25.1572 8.04379 25.1507C8.02369 25.3914 8.00024 25.6255 8.00024 25.8695C8.00024 31.4656 13.3738 35.9998 20.0002 35.9998C26.6267 35.9998 32.0002 31.4656 32.0002 25.8695C32.0002 25.6156 31.9768 25.3617 31.9533 25.1111Z" fill="currentColor"/>
  </g>
</svg>
