<svg width="40" height="40" viewBox="0 0 40 40" fill="none" xmlns="http://www.w3.org/2000/svg" data-seed-icon="true" data-seed-icon-version="0.3.4">
  <g>
    <g>
      <path d="M26.0612 16.5362C24.0094 15.4989 21.5836 16.2456 19.9984 16.4737C18.4164 16.2456 15.9906 15.4989 13.9388 16.5362C11.9477 17.5423 9.55714 20.2732 12.1043 26.1881C14.6547 32.1061 16.6171 31.9999 17.4672 31.9999H22.5328C23.3829 31.9999 25.3485 32.1061 27.8957 26.1881C30.4429 20.2732 28.0523 17.5423 26.0612 16.5362Z" fill="currentColor"/>
      <path d="M24.2868 12.4706C24.8227 12.0894 25.2877 11.6478 25.6758 11.0821C25.9468 10.6858 26.1808 10.2169 26.3286 9.86602C26.5381 9.35781 26.8214 8.14173 27 6.99826C26.1315 7.16464 24.5579 7.50647 23.7571 7.89368C22.7932 8.36256 21.9648 9.00388 21.3458 9.9114C21.0748 10.3077 20.8623 10.7161 20.6929 11.1275C20.4712 11.6357 20.3203 12.1469 20.2187 12.6551C20.1293 13.1028 20.0739 13.5324 20 13.9983C20.4619 13.9015 21.4105 13.7048 22.2235 13.4689C22.9287 13.2662 23.6401 12.9334 24.2868 12.4706Z" fill="currentColor"/>
    </g>
  </g>
</svg>
