<svg width="40" height="40" viewBox="0 0 40 40" fill="none" xmlns="http://www.w3.org/2000/svg" data-seed-icon="true" data-seed-icon-version="0.3.4">
  <g>
    <g>
      <path d="M7 30.2018H12.2327V10.6505H7V30.2018Z" fill="currentColor"/>
      <path d="M11.3605 7.06432C11.3605 8.10697 10.577 8.95038 9.61627 8.95038C8.65217 8.95038 7.87203 8.10697 7.87203 7.06432C7.87203 6.02168 9.61627 3 9.61627 3C9.61627 3 11.3605 6.02168 11.3605 7.06432Z" fill="currentColor"/>
      <path d="M14.8491 30.1717H20.0818V17.4508H14.8491V30.1717Z" fill="currentColor"/>
      <path d="M19.2097 13.8646C19.2097 14.9072 18.4261 15.7507 17.4654 15.7507C16.5013 15.7507 15.7212 14.9072 15.7212 13.8646C15.7212 12.822 17.4654 9.80027 17.4654 9.80027C17.4654 9.80027 19.2097 12.822 19.2097 13.8646Z" fill="currentColor"/>
      <path d="M24.4183 31.3004C24.5137 31.9977 24.0129 32.6386 23.2975 32.7349C22.5821 32.8279 21.9246 32.3364 21.8258 31.6391C21.7304 30.9418 22.2346 30.3009 22.9466 30.208C23.6654 30.115 24.3229 30.6031 24.4183 31.3004Z" fill="currentColor"/>
      <path d="M24.4183 35.5575C24.5137 36.2548 24.0129 36.8957 23.2975 36.9886C22.5821 37.0816 21.9246 36.5935 21.8258 35.8962C21.7304 35.1989 22.2346 34.558 22.9466 34.465C23.6654 34.3721 24.3229 34.8602 24.4183 35.5575Z" fill="currentColor"/>
      <path d="M20.9334 33.0073C21.0288 33.7046 20.528 34.3455 19.8126 34.4385C19.0972 34.5315 18.4397 34.0433 18.3409 33.346C18.2455 32.6487 18.7497 32.0079 19.4617 31.9149C20.1806 31.8219 20.838 32.31 20.9334 33.0073Z" fill="currentColor"/>
      <path d="M31.6953 36.5969L28.4691 36.6235L25.5155 35.2621L24.8853 33.5719L26.1866 32.2968L29.4536 32.2836L32.3698 33.6284L33 35.3218" fill="currentColor"/>
      <path d="M32.2571 28.6941L29.5896 30.4739L26.3601 30.9454L24.8713 29.8828L25.2222 28.1163L27.9272 26.3332L31.1192 25.8683L32.608 26.9309" fill="currentColor"/>
    </g>
  </g>
</svg>
