<svg width="40" height="40" viewBox="0 0 40 40" fill="none" xmlns="http://www.w3.org/2000/svg" data-seed-icon="true" data-seed-icon-version="0.3.4">
  <g>
    <g>
      <path d="M23.0743 12.0104C23.0743 12.0104 23.0777 12.0136 23.0777 12.0169C23.1001 12.0639 23.1296 12.1086 23.1602 12.1549L23.1767 12.18C23.1823 12.1883 23.1879 12.1977 23.1938 12.2076C23.2017 12.221 23.2101 12.2353 23.2196 12.2484L23.1998 12.2647L26.5778 15.6008L26.5943 15.5845C26.6059 15.5926 26.6183 15.5992 26.6307 15.6057C26.643 15.6122 26.6554 15.6187 26.667 15.6269C26.7198 15.6627 26.776 15.6954 26.8321 15.7247C26.8321 15.7247 26.8354 15.7247 26.8387 15.728C27.4166 16.0084 28.1298 15.9204 28.6119 15.4475L30.6922 13.3931L30.6889 13.3833L31.9833 12.1017C31.5342 11.6549 31.5342 10.931 31.9866 10.4842C32.439 10.0375 33.172 10.0375 33.6244 10.481L39.0002 5.17526L33.7598 0L28.3841 5.3057C28.8364 5.75246 28.8364 6.47967 28.3841 6.92643C27.9317 7.36994 27.1986 7.3732 26.7429 6.92643L25.4485 8.20802C25.4469 8.20639 25.4452 8.20558 25.4436 8.20476C25.4419 8.20395 25.4403 8.20313 25.4386 8.2015L23.355 10.2592C22.8762 10.7353 22.7871 11.4397 23.0743 12.0104Z" fill="currentColor"/>
      <path d="M21.6316 18.2327L23.2033 16.6804L24.2963 17.7631L25.3893 16.6804L22.1071 13.439L21.0141 14.5184L22.1071 15.601L20.5386 17.15L21.6316 18.2327Z" fill="currentColor"/>
      <path d="M21.4137 23.1571C20.9415 23.5354 20.4033 23.5973 19.8552 23.3071C19.35 23.0397 19.0891 22.6092 19.1254 22.0385C19.1353 21.8331 19.1848 21.6179 19.2773 21.4353C19.6147 20.7635 19.9659 20.1008 20.3194 19.434L20.5255 19.0449L20.5309 19.0556C20.8064 19.6031 21.0854 20.1574 21.3609 20.7113C21.4074 20.804 21.4558 20.8962 21.5044 20.9886C21.6453 21.2569 21.7868 21.5265 21.8826 21.8103C22.0642 22.3516 21.843 22.8114 21.4137 23.1571Z" fill="currentColor"/>
      <path d="M34.5192 23.2838C34.5126 31.3483 27.8655 37.9095 19.6996 37.9095C11.5336 37.9095 4.88652 31.3483 4.87992 23.2838V22.2402H1V24.3273H2.79632C3.35107 33.0603 10.7213 39.9998 19.6996 39.9998C28.6778 39.9998 36.0513 33.0603 36.6028 24.3273H38.3991V22.2402H34.5225L34.5192 23.2838Z" fill="currentColor"/>
      <path d="M16.5098 35.4346L17.1834 31.9062L20.0892 30.1094L23.2427 32.1508L23.596 35.2292L23.0049 35.402C21.9483 35.6825 20.8454 35.8488 19.6996 35.8488C18.5967 35.8488 17.5334 35.6955 16.5098 35.4346Z" fill="currentColor"/>
      <path d="M25.3693 28.5277L25.2537 25.8601L22.2719 24.6992L20.8521 26.3232L20.9016 29.2125L23.6093 30.768L25.3693 28.5277Z" fill="currentColor"/>
      <path d="M19.7622 25.8636L19.782 28.867L16.6913 30.8269L15.103 27.7061L16.1399 24.8462L18.306 25.1919L19.7622 25.8636Z" fill="currentColor"/>
      <path d="M15.3278 35.0693L15.9189 31.8344L14.4891 28.6973H11.4578L10.5894 30.8919L11.58 32.966C12.6961 33.866 13.9608 34.5769 15.3278 35.0693Z" fill="currentColor"/>
      <path d="M29.0345 31.0876L28.4501 32.4181C27.3274 33.4454 26.0363 34.2834 24.6131 34.8704L24.3291 31.7659L25.924 29.3169H28.2222L29.0345 31.0876Z" fill="currentColor"/>
    </g>
  </g>
</svg>
