<svg width="40" height="40" viewBox="0 0 40 40" fill="none" xmlns="http://www.w3.org/2000/svg" data-seed-icon="true" data-seed-icon-version="0.3.4">
  <g>
    <g>
      <path d="M10 14.0502C10.4779 8.46025 14.6506 5.00024 20.2175 5.00024C25.824 5.00024 30 8.50024 30 13.5669C30 16.8636 28.2498 18.7936 25.8635 20.3236L24.6309 21.0869C22.5643 22.4536 21.7271 23.7002 21.7271 26.5536H17.5148C17.5148 22.4536 18.7871 20.6036 21.2887 18.8336L22.4061 18.1102C23.9552 16.9836 25.1088 15.7369 25.1088 13.8502C25.1088 11.1136 22.9202 9.18358 20.0989 9.18358C16.9974 9.18358 14.8912 11.3969 14.5715 15.1369L10 14.0502Z" fill="currentColor"/>
      <path d="M16.7566 32.1432C16.7566 30.4965 17.9497 29.3298 19.6208 29.3298C21.2919 29.3298 22.485 30.4965 22.485 32.1432C22.485 33.8332 21.2919 34.9998 19.6208 34.9998C17.9497 34.9998 16.7566 33.8332 16.7566 32.1432Z" fill="currentColor"/>
    </g>
  </g>
</svg>
