<svg width="40" height="40" viewBox="0 0 40 40" fill="none" xmlns="http://www.w3.org/2000/svg" data-seed-icon="true" data-seed-icon-version="0.3.4">
  <g>
    <g>
      <path d="M12.0983 2.33854L11.0273 2L8 11.6354L9.07096 11.9707L12.0983 2.33854Z" fill="currentColor"/>
      <path d="M25.4772 6.54102L23.5566 13.4974L24.9368 12.7161L26.5482 6.8763L25.4772 6.54102Z" fill="currentColor"/>
      <path d="M24.4062 6.20573L13.1693 2.67383L10.1419 12.3092L13.3516 13.3184L15.4935 13.9889L16.0273 14.1582L20.1257 15.444L22.1764 14.2786" fill="currentColor"/>
      <path d="M18 29.5H30V27.5H18V29.5Z" fill="currentColor"/>
      <path d="M20.0961 25.7637C20.433 25.8657 20.7699 25.9253 21.102 25.9551C21.3915 25.98 21.669 25.985 21.9703 25.9999C21.8731 25.7165 21.6761 25.1349 21.4674 24.6403C21.2847 24.2128 21.019 23.7903 20.6773 23.4174C20.3974 23.1092 20.0795 22.8458 19.6904 22.6444C19.4199 22.5028 19.1044 22.3859 18.8695 22.3188C18.5326 22.2219 17.7402 22.1275 17 22.0951C17.1708 22.6295 17.5053 23.5914 17.8114 24.0661C18.1815 24.6378 18.6512 25.115 19.2752 25.4381C19.548 25.5798 19.8209 25.6842 20.0961 25.7637Z" fill="currentColor"/>
      <path d="M29.1281 22.3189C28.8956 22.386 28.5801 22.5028 28.3073 22.6445C27.9182 22.8458 27.6026 23.1093 27.3203 23.4175C26.9787 23.7903 26.713 24.2129 26.5326 24.6404C26.3215 25.135 26.1246 25.7166 26.0273 25.9999C26.3286 25.985 26.6062 25.9801 26.898 25.9552C27.2302 25.9254 27.5647 25.8657 27.9039 25.7638C28.1791 25.6843 28.452 25.5799 28.7224 25.4382C29.3464 25.1151 29.8162 24.6379 30.1863 24.0662C30.4923 23.5915 30.8268 22.6296 31 22.0952C30.2598 22.1275 29.4674 22.222 29.1281 22.3189Z" fill="currentColor"/>
      <path d="M23.1147 24.459C23.2333 24.7746 23.3828 25.0605 23.5488 25.3239C23.6983 25.5576 23.8525 25.7664 24.0138 26C24.1633 25.7614 24.467 25.2742 24.7019 24.8268C24.9035 24.4416 25.0554 23.9967 25.1289 23.5195C25.1906 23.1317 25.1977 22.7415 25.1218 22.3314C25.0672 22.0456 24.9723 21.7423 24.8869 21.5286C24.7635 21.2179 24.3792 20.5717 23.9806 20C23.6959 20.4399 23.1977 21.2552 23.0316 21.7597C22.83 22.3737 22.7588 23.0025 22.8798 23.6562C22.9344 23.9445 23.015 24.2104 23.1147 24.459Z" fill="currentColor"/>
      <path d="M20.6922 37H27.3548L28.5 31H19.5L20.6922 37Z" fill="currentColor"/>
      <path d="M24.0013 18.0747C24.5541 18.0747 25 17.6247 25 17.0692C25 16.4247 24.0013 15.0747 24.0013 15.0747C24.0013 15.0747 23 16.4247 23 17.0692C23 17.6247 23.4486 18.0747 24.0013 18.0747Z" fill="currentColor"/>
    </g>
  </g>
</svg>
