<svg width="40" height="40" viewBox="0 0 40 40" fill="none" xmlns="http://www.w3.org/2000/svg" data-seed-icon="true" data-seed-icon-version="0.3.4">
  <g>
    <g>
      <path d="M19 35H22V25.5C21.0885 24.2891 19 21 19 21" fill="currentColor"/>
      <path d="M19.5 17.311C19.5 18.1384 20.1726 18.811 21 18.811C21.8274 18.811 22.5 18.1384 22.5 17.311C22.5 16.4837 21.8274 15.811 21 15.811C20.1726 15.811 19.5 16.4837 19.5 17.311Z" fill="currentColor"/>
      <path d="M17.9308 15.6282C13.7594 16.0161 7 16.7327 7 17.3091C7 17.8849 13.7588 18.6037 17.9294 18.9913C17.6557 18.4924 17.5 17.9198 17.5 17.311C17.5 16.7012 17.6562 16.1276 17.9308 15.6282Z" fill="currentColor"/>
      <path d="M21.4322 20.7846C23.804 24.1164 27.275 28.8387 27.897 28.8387C27.9132 28.8387 27.9295 28.8355 27.9393 28.8289C28.4259 28.5486 25.863 22.7371 24.1124 18.9128C23.5936 19.9181 22.6019 20.6403 21.4322 20.7846Z" fill="currentColor"/>
      <path d="M23.9084 15.3641C23.9312 15.3141 23.9544 15.2638 23.9784 15.2126C25.7297 11.4008 28.4347 5.29724 27.9399 5.01078C27.4313 4.71922 23.2989 10.4114 20.8946 13.8126C20.9296 13.8116 20.9647 13.811 21 13.811C22.2116 13.811 23.28 14.4277 23.9084 15.3641Z" fill="currentColor"/>
    </g>
  </g>
</svg>
