<svg width="40" height="40" viewBox="0 0 40 40" fill="none" xmlns="http://www.w3.org/2000/svg" data-seed-icon="true" data-seed-icon-version="0.3.4">
  <g>
    <g>
      <path d="M30.0042 16.3704L24.2946 23.0371L23.0381 21.9629L28.7477 15.293L30.0042 16.3704Z" fill="currentColor"/>
      <path fill-rule="evenodd" clip-rule="evenodd" d="M10.356 21.6764C10.356 29.0365 16.3195 35 23.6763 35C31.0363 35 36.9998 29.0365 36.9998 21.6764C36.9998 14.5964 31.4725 8.82487 24.4998 8.39844V6.66667H26.1665V5H21.1665V6.66667H22.8332V8.39844C15.8703 8.83789 10.356 14.6061 10.356 21.6764ZM34.4998 21.6764C34.4998 27.6465 29.6463 32.5 23.6763 32.5C17.7127 32.5 12.856 27.6465 12.856 21.6764C12.856 15.7129 17.7127 10.8561 23.6763 10.8561C29.6463 10.8561 34.4998 15.7129 34.4998 21.6764Z" fill="currentColor"/>
      <path d="M2 11.6958V13.3494H11.2415C11.6354 12.7635 12.0846 12.2166 12.5534 11.6958H2Z" fill="currentColor"/>
      <path d="M3.65723 15.8691V17.5228H9.29525C9.45801 16.9596 9.64681 16.4062 9.87142 15.8691H3.65723Z" fill="currentColor"/>
      <path d="M5.32031 21.6668V20.0132H8.79362C8.73177 20.5568 8.69271 21.1069 8.69271 21.6668H5.32031Z" fill="currentColor"/>
    </g>
  </g>
</svg>
