<svg width="40" height="40" viewBox="0 0 40 40" fill="none" xmlns="http://www.w3.org/2000/svg" data-seed-icon="true" data-seed-icon-version="0.3.4">
  <g>
    <g>
      <path fill-rule="evenodd" clip-rule="evenodd" d="M10.7988 13H25.0349V7H10.7988V13ZM22.7871 9.99415C22.3744 9.99415 22.0437 9.66049 22.0437 9.2478C22.0437 8.83805 22.3744 8.50439 22.7871 8.50439C23.1998 8.50439 23.5335 8.83805 23.5335 9.2478C23.5335 9.66049 23.1998 9.99415 22.7871 9.99415ZM17.5422 11.4898C17.1325 11.4898 16.7959 11.1561 16.7959 10.7434C16.7959 10.3337 17.1325 9.99707 17.5422 9.99707C17.9549 9.99707 18.2886 10.3337 18.2886 10.7434C18.2886 11.1561 17.9549 11.4898 17.5422 11.4898ZM13.793 9.99122C13.3803 9.99122 13.0466 9.65756 13.0466 9.24488C13.0466 8.83512 13.3803 8.49854 13.793 8.49854C14.2027 8.49854 14.5364 8.83512 14.5364 9.24488C14.5364 9.65756 14.2027 9.99122 13.793 9.99122Z" fill="currentColor"/>
      <path fill-rule="evenodd" clip-rule="evenodd" d="M29.2014 21H14.9653V15H29.2014V21ZM25.4609 18.0029C25.4609 18.4156 25.7917 18.7493 26.2044 18.7493C26.617 18.7493 26.9507 18.4156 26.9507 18.0029C26.9507 17.5932 26.617 17.2595 26.2044 17.2595C25.7917 17.2595 25.4609 17.5932 25.4609 18.0029ZM21.7146 17.2449C21.7146 17.6576 22.0453 17.9912 22.458 17.9912C22.8707 17.9912 23.2044 17.6576 23.2044 17.2449C23.2044 16.8322 22.8707 16.5015 22.458 16.5015C22.0453 16.5015 21.7146 16.8322 21.7146 17.2449ZM17.2161 18.7493C17.2161 19.159 17.5526 19.4927 17.9624 19.4927C18.3751 19.4927 18.7087 19.159 18.7087 18.7493C18.7087 18.3366 18.3751 18.0029 17.9624 18.0029C17.5526 18.0029 17.2161 18.3366 17.2161 18.7493Z" fill="currentColor"/>
      <path d="M36 31V32.8743C36 33.4961 35.4549 34 34.7846 34C34.7804 34 34.7762 33.9994 34.7716 33.9988C34.7659 33.998 34.7598 33.9971 34.7526 33.9971V34H5.17687V33.9941C4.5259 33.9764 4 33.4813 4 32.8743C4 32.8669 4.0016 32.8603 4.00321 32.8536C4.00481 32.847 4.00641 32.8404 4.00641 32.833V31H36Z" fill="currentColor"/>
      <path fill-rule="evenodd" clip-rule="evenodd" d="M25.028 29H10.7988V23H25.028V29ZM20.5404 24.5124C20.5404 24.9249 20.871 25.2584 21.2835 25.2584C21.696 25.2584 22.0294 24.9249 22.0294 24.5124C22.0294 24.1029 21.696 23.7694 21.2835 23.7694C20.871 23.7694 20.5404 24.1029 20.5404 24.5124ZM17.5419 26.7533C17.5419 27.1628 17.8783 27.4963 18.2879 27.4963C18.7003 27.4963 19.0338 27.1628 19.0338 26.7533C19.0338 26.3408 18.7003 26.0073 18.2879 26.0073C17.8783 26.0073 17.5419 26.3408 17.5419 26.7533ZM13.7944 25.2584C13.7944 25.6709 14.1279 26.0044 14.5404 26.0044C14.95 26.0044 15.2835 25.6709 15.2835 25.2584C15.2835 24.8459 14.95 24.5124 14.5404 24.5124C14.1279 24.5124 13.7944 24.8459 13.7944 25.2584Z" fill="currentColor"/>
    </g>
  </g>
</svg>
