<svg width="40" height="40" viewBox="0 0 40 40" fill="none" xmlns="http://www.w3.org/2000/svg" data-seed-icon="true" data-seed-icon-version="0.3.4">
  <g>
    <path fill-rule="evenodd" clip-rule="evenodd" d="M32 32H8V8H32V32ZM23.4896 20.3371L22.7539 20.7863C21.5267 21.5903 21.0286 22.3228 21.0286 24.0024H18.5221C18.5221 21.5903 19.2773 20.5031 20.7682 19.4614L21.4323 19.035C22.3535 18.3742 23.0404 17.6418 23.0404 16.5285C23.0404 14.9204 21.7383 13.7876 20.0586 13.7876C18.2129 13.7876 16.9596 15.0864 16.7708 17.2837L14.0527 16.6489C14.3359 13.3612 16.8197 11.3267 20.1302 11.3267C23.4668 11.3267 25.9473 13.384 25.9473 16.3625C25.9473 18.3026 24.9089 19.4386 23.4896 20.3371ZM19.75 28.5024C20.4404 28.5024 21 27.9428 21 27.2524C21 26.5621 20.4404 26.0024 19.75 26.0024C19.0596 26.0024 18.5 26.5621 18.5 27.2524C18.5 27.9428 19.0596 28.5024 19.75 28.5024Z" fill="currentColor"/>
  </g>
</svg>
