<svg width="40" height="40" viewBox="0 0 40 40" fill="none" xmlns="http://www.w3.org/2000/svg" data-seed-icon="true" data-seed-icon-version="0.3.4">
  <g>
    <path fill-rule="evenodd" clip-rule="evenodd" d="M5 20C5 11.7172 11.7172 5 20 5C28.2828 5 35 11.7172 35 20C35 28.2828 28.2828 35 20 35C11.7172 35 5 28.2828 5 20ZM20.0015 8.3623C21.1912 8.3623 22.0405 9.18666 22.0405 10.3483C22.0405 11.5379 21.1912 12.3623 20.0015 12.3623C18.8087 12.3623 17.9594 11.5379 17.9594 10.3483C17.9594 9.18666 18.8087 8.3623 20.0015 8.3623ZM24.5 30.9998H16.5V28.9998H18.5V16.9998H15.5V14.9998H22.5V28.9998H24.5V30.9998Z" fill="currentColor"/>
  </g>
</svg>
