<svg width="40" height="40" viewBox="0 0 40 40" fill="none" xmlns="http://www.w3.org/2000/svg" data-seed-icon="true" data-seed-icon-version="0.3.4">
  <g>
    <g>
      <path d="M3.72912 19.0006C4.26311 27.3585 11.3576 34 20 34C28.6424 34 35.7369 27.3585 36.2709 19.0006H38V17H34.2684L34.2652 18.0018C34.2621 25.72 27.8605 31.9994 20 31.9994C12.1395 31.9994 5.74113 25.72 5.73477 18.0018V17H2V19.0006H3.72912Z" fill="currentColor"/>
      <path d="M20.275 23.855L23.3805 25.896L23.7288 28.9689L23.1493 29.1414C22.1077 29.4214 21.0172 29.5874 19.8909 29.5874C18.8036 29.5874 17.7555 29.4312 16.7463 29.1707L17.4104 25.6519L20.275 23.855Z" fill="currentColor"/>
      <path d="M22.4266 18.458L21.0269 20.0758L21.0757 22.96L23.745 24.516L25.48 22.2796L25.366 19.6169L22.4266 18.458Z" fill="currentColor"/>
      <path d="M16.3818 18.6011L18.5172 18.9461L19.9527 19.62L19.9722 22.618L16.9221 24.5711L15.3596 21.4591L16.3818 18.6011Z" fill="currentColor"/>
      <path d="M14.7542 22.4487H11.7659L10.9065 24.6362L11.8863 26.7098C12.9866 27.605 14.2333 28.3146 15.581 28.8094L16.1637 25.5802L14.7542 22.4487Z" fill="currentColor"/>
      <path d="M26.0269 23.0674H28.2925L29.0933 24.835L28.5171 26.1631C27.4103 27.1885 26.1343 28.0251 24.7345 28.611L24.4546 25.512L26.0269 23.0674Z" fill="currentColor"/>
    </g>
  </g>
</svg>
