<svg width="40" height="40" viewBox="0 0 40 40" fill="none" xmlns="http://www.w3.org/2000/svg" data-seed-icon="true" data-seed-icon-version="0.3.4">
  <g>
    <g>
      <path d="M26.984 5.08724C26.9041 4.47201 26.396 4 25.7727 4C25.7647 4 25.7568 4.00081 25.7488 4.00163C25.7408 4.00244 25.7328 4.00326 25.7248 4.00326V4H11.2049C10.5369 4.01302 10 4.56641 10 5.25V27.75C10 28.4271 10.5273 28.974 11.1857 28.9935V29H12.8676C12.9946 28.0992 13.4511 27.3157 14.0987 26.7618L14.1086 26.7519L14.1887 26.6868C14.878 26.1264 15.723 25.8135 16.61 25.8135C16.9878 25.8135 17.3663 25.8701 17.7312 25.9823V22H12V6H25V19.4986L25.0026 22.5563C25.4534 22.6025 25.8785 22.7308 26.2636 22.9256C26.4957 22.8083 26.7422 22.7152 27 22.6496V5.08724H26.984Z" fill="currentColor"/>
      <path d="M17.1485 14.1222L15.3647 12.3384L14.1667 13.5265L17.1453 16.5246L22.5001 11.16L21.3022 9.95557L17.1485 14.1222Z" fill="currentColor"/>
      <path d="M32.998 36V26.276C32.998 26.2659 32.9963 26.2559 32.9946 26.2463C32.9931 26.2376 32.9916 26.2293 32.9916 26.2216C32.9916 26.2182 32.9918 26.215 32.992 26.2121C32.9923 26.2078 32.9929 26.204 32.9934 26.2003C32.9941 26.1946 32.9948 26.1893 32.9948 26.1833C32.9948 25.2722 32.26 24.537 31.3496 24.537C30.4742 24.537 29.7618 25.2275 29.7139 26.0938C29.6691 25.2275 28.9599 24.537 28.0814 24.537C27.1901 24.537 26.4713 25.2435 26.4425 26.1257C26.4106 25.2435 25.6918 24.537 24.8036 24.537C23.9698 24.537 23.1114 25.1604 23.0028 25.9627V19.6175C22.99 18.7224 22.2648 18 21.3671 18C20.4886 18 19.773 18.7001 19.7378 19.5727C19.7378 19.5775 19.7362 19.5807 19.7346 19.5839C19.733 19.5871 19.7314 19.5903 19.7314 19.5951V30.4635L17.9839 28.4465C17.6261 28.0277 17.1182 27.8135 16.6102 27.8135C16.202 27.8135 15.7985 27.9558 15.4505 28.2387L15.4473 28.2419C15.1119 28.5072 14.8851 28.8972 14.8404 29.3447C14.7669 29.837 14.8915 30.358 15.2397 30.7672L19.7218 36H32.998Z" fill="currentColor"/>
    </g>
  </g>
</svg>
