<svg width="40" height="40" viewBox="0 0 40 40" fill="none" xmlns="http://www.w3.org/2000/svg" data-seed-icon="true" data-seed-icon-version="0.3.4">
  <g>
    <g>
      <path d="M11.9038 30.3774L11.1895 31.8766L11.1995 31.8831C10.8739 32.7025 11.0433 33.6684 11.7211 34.3317C12.6347 35.2228 14.1164 35.2228 15.0267 34.3317C15.1995 34.1626 15.329 33.9675 15.4387 33.7659L15.442 33.7692L15.4752 33.7009C15.5018 33.6423 15.5317 33.5871 15.5549 33.5285L16.0765 32.4294" fill="currentColor"/>
      <path d="M9.85713 14.5897L11.7408 10.4012L11.3056 10.2419C11.2392 10.2094 11.1694 10.1899 11.0996 10.1638L11.0365 10.1411V10.1443C10.8139 10.0793 10.5814 10.0305 10.3389 10.0305C9.0465 10.0305 8 11.0549 8 12.3166C8 13.2531 8.57807 14.0564 9.39866 14.4108L9.39534 14.4206" fill="currentColor"/>
      <path d="M20.0333 15.8581C19.5615 15.8581 19.1828 15.4841 19.1828 15.0256C19.1828 14.5638 19.5615 14.1931 20.0333 14.1931C20.5017 14.1931 20.8838 14.5638 20.8838 15.0256C20.8838 15.4841 20.5017 15.8581 20.0333 15.8581ZM20.0333 19.1848C19.5615 19.1848 19.1828 18.8108 19.1828 18.3523C19.1828 17.8905 19.5615 17.5198 20.0333 17.5198C20.5017 17.5198 20.8838 17.8905 20.8838 18.3523C20.8838 18.8108 20.5017 19.1848 20.0333 19.1848ZM20.0333 22.5114C19.5615 22.5114 19.1828 22.1375 19.1828 21.679C19.1828 21.2172 19.5615 20.8465 20.0333 20.8465C20.5017 20.8465 20.8838 21.2172 20.8838 21.679C20.8838 22.1375 20.5017 22.5114 20.0333 22.5114ZM27.5648 29.2103L25.5615 24.9894V16.2743L28.6047 15.1557L26.721 10.9672L22.6645 12.4566C23.6446 11.6859 24.2858 10.5185 24.2858 9.19494C24.2858 6.87634 22.3655 5 20.0001 5C17.6347 5 15.7144 6.87634 15.7144 9.19494C15.7144 10.5185 16.3556 11.6859 17.3356 12.4566L13.3357 10.9867L11.452 15.1752L14.4918 16.2938V24.9243L12.6214 28.8656L16.7941 30.9208L20.0134 24.1471L23.3921 31.2623" fill="currentColor"/>
      <path d="M28.8105 31.8309L28.2822 30.7188L24.1361 32.7577L23.6577 31.8244L24.4451 33.4796C24.4683 33.5414 24.4982 33.5967 24.5281 33.652L24.558 33.7202H24.5613C24.671 33.9219 24.8005 34.1137 24.9733 34.2828C25.8869 35.1771 27.3653 35.1771 28.2789 34.2828C28.9567 33.6227 29.1261 32.6536 28.8005 31.8341" fill="currentColor"/>
      <path d="M32 12.3196C32 11.0546 30.9535 10.0303 29.6611 10.0303C29.4186 10.0303 29.1861 10.0758 28.9635 10.1441V10.1408L28.9004 10.1636C28.8306 10.1864 28.7608 10.2091 28.6944 10.2416L28.3156 10.3815L30.1993 14.5699L30.6013 14.4203L30.598 14.4106C31.4219 14.0561 32 13.2561 32 12.3196Z" fill="currentColor"/>
    </g>
  </g>
</svg>
