<svg width="40" height="40" viewBox="0 0 40 40" fill="none" xmlns="http://www.w3.org/2000/svg" data-seed-icon="true" data-seed-icon-version="0.3.4">
  <g>
    <g>
      <path d="M31.3184 8.74089L28.8738 6L25.7097 6.86263L28.1511 9.60351L31.3184 8.74089Z" fill="currentColor"/>
      <path d="M23.2585 7.52637L25.7032 10.2705L22.5359 11.1299L20.0945 8.389L23.2585 7.52637Z" fill="currentColor"/>
      <path d="M28.6602 16H32L30.3333 19.3376H32V31.3345C32 32.2551 31.2513 33 30.3333 33H8.66667C7.74544 33 7 32.2551 7 31.3345V19.3376H9.22331L10.89 16H14.2266L12.5599 19.3376H15.1413L16.8079 16H20.1445L18.4779 19.3376H21.069L22.7357 16H26.0723L24.4056 19.3376H26.9935L28.6602 16Z" fill="currentColor"/>
      <path d="M17.6368 9.05957L20.0782 11.8005L16.9141 12.6631L14.4695 9.91895L17.6368 9.05957Z" fill="currentColor"/>
      <path d="M14.4564 13.3307L12.0117 10.5898L8.84766 11.4525L11.2891 14.1901L14.4564 13.3307Z" fill="currentColor"/>
      <path d="M9.08333 15.8244C9.08333 16.3973 8.61458 16.866 8.04167 16.866C7.46549 16.866 7 16.3973 7 15.8244C7 15.2482 7.46549 14.7827 8.04167 14.7827C8.61458 14.7827 9.08333 15.2482 9.08333 15.8244Z" fill="currentColor"/>
    </g>
  </g>
</svg>
