<svg width="40" height="40" viewBox="0 0 40 40" fill="none" xmlns="http://www.w3.org/2000/svg" data-seed-icon="true" data-seed-icon-version="0.3.4">
  <g>
    <g>
      <path d="M21 5H19V2H21V5Z" fill="currentColor"/>
      <path d="M24.0984 8.73617V7H15.9714V8.71338C12.854 9.62158 10.3302 11.5422 9 13.9998H31C29.6794 11.5617 27.1841 9.65088 24.0984 8.73617Z" fill="currentColor"/>
      <path d="M8 18.6183C8 19.8069 8.2533 20.942 8.69974 22H31.2971C31.7435 20.942 32 19.8069 32 18.6183C32 17.7109 31.8449 16.8371 31.5789 16H8.41794C8.15514 16.8371 8 17.7109 8 18.6183Z" fill="currentColor"/>
      <path d="M15.8018 30V28.5378C12.8872 27.724 10.4656 26.0996 9 24H31C29.5444 26.0833 27.1492 27.6979 24.271 28.5182V30H15.8018Z" fill="currentColor"/>
      <path d="M21.25 33.25C21.25 32.5599 20.6901 32 20 32C19.3099 32 18.75 32.5599 18.75 33.25C18.75 33.8457 19.1634 34.3405 19.7201 34.4674L18.75 38H21.25L20.2799 34.4674C20.8333 34.3405 21.25 33.8457 21.25 33.25Z" fill="currentColor"/>
    </g>
  </g>
</svg>
