<svg width="40" height="40" viewBox="0 0 40 40" fill="none" xmlns="http://www.w3.org/2000/svg" data-seed-icon="true" data-seed-icon-version="0.3.4">
  <g>
    <g>
      <path d="M19.2969 6.10162C20.0195 7.19784 20.5241 8.53118 20.8008 9.97844C20.7408 9.97499 20.681 9.97122 20.6213 9.96745C20.4151 9.95445 20.2095 9.94149 20 9.94149C19.5833 9.94149 19.1732 9.96305 18.7663 10C18.5286 8.91301 18.1348 7.9184 17.5977 7.09931C17.3079 6.65897 16.9922 6.29253 16.6602 6H19.2253C19.2342 6.01268 19.2428 6.02427 19.2511 6.03553C19.2669 6.05706 19.2819 6.07735 19.2969 6.10162Z" fill="currentColor"/>
      <path fill-rule="evenodd" clip-rule="evenodd" d="M27.078 13.0899C30.9412 13.3856 34 17.2628 34 22.0145C34 26.7854 30.9194 30.6722 27.0374 30.9423C26.9956 30.9451 26.9542 30.9485 26.9131 30.9518C26.8131 30.9599 26.714 30.968 26.6102 30.968C26.0334 30.968 25.4722 30.878 24.9327 30.7269C23.4704 31.5338 21.7929 32 20 32C18.2071 32 16.5296 31.5338 15.0704 30.7269C14.5278 30.878 13.9666 30.968 13.3898 30.968C13.2842 30.968 13.1818 30.9597 13.0803 30.9514C13.041 30.9482 13.0018 30.945 12.9626 30.9423C9.08062 30.6722 6 26.7854 6 22.0145C6 17.2628 9.0588 13.3856 12.922 13.0899C12.974 13.0866 13.0256 13.0824 13.0773 13.0781C13.1805 13.0695 13.2837 13.0609 13.3898 13.0609C13.9572 13.0609 14.506 13.1477 15.0361 13.2924C16.5047 12.4726 18.1947 12 20 12C21.8053 12 23.4953 12.4726 24.9639 13.2924C25.494 13.1477 26.0428 13.0609 26.6102 13.0609C26.7177 13.0609 26.8237 13.0697 26.9283 13.0784C26.9785 13.0826 27.0284 13.0867 27.078 13.0899ZM19.9283 25.3194C16.0058 25.3194 15.2356 24.8275 15.2356 24.8275C15.2356 24.8275 16.2646 27.3223 20.0249 27.3223C23.7884 27.3223 24.8174 24.8275 24.8174 24.8275C24.8174 24.8275 23.8508 25.3194 19.9283 25.3194ZM21.7212 19.6161H26.3702L24.0472 16.7645L21.7212 19.6161ZM21.6432 22.9918L20.0249 21.0082L18.4098 22.9918H21.6432ZM13.6797 19.6161H18.3287L16.0058 16.7645L13.6797 19.6161Z" fill="currentColor"/>
    </g>
  </g>
</svg>
