<svg width="40" height="40" viewBox="0 0 40 40" fill="none" xmlns="http://www.w3.org/2000/svg" data-seed-icon="true" data-seed-icon-version="0.3.4">
  <g>
    <g>
      <path d="M31 21C31.5508 21 32 20.5508 32 20C32 19.4492 31.5508 19 31 19C30.4492 19 30 19.4492 30 20C30 20.5508 30.4492 21 31 21Z" fill="currentColor"/>
      <path d="M10 20C10 20.5508 9.55078 21 9 21C8.44531 21 8 20.5508 8 20C8 19.4492 8.44531 19 9 19C9.55078 19 10 19.4492 10 20Z" fill="currentColor"/>
      <path d="M19 31C19 31.5508 19.4453 32 20 32C20.5508 32 21 31.5508 21 31C21 30.4453 20.5508 30 20 30C19.4453 30 19 30.4453 19 31Z" fill="currentColor"/>
      <path d="M20 10C19.4453 10 19 9.55078 19 9C19 8.44531 19.4453 8 20 8C20.5508 8 21 8.44531 21 9C21 9.55078 20.5508 10 20 10Z" fill="currentColor"/>
      <path d="M14.9707 18.4668L20.166 21.9466L27.0671 13.8867L25.8105 12.8125L19.8665 19.7559L15.8919 17.0931L14.9707 18.4668Z" fill="currentColor"/>
      <path fill-rule="evenodd" clip-rule="evenodd" d="M20 4C11.1605 4 4 11.1638 4 20C4 28.8362 11.1605 36 20 36C28.8362 36 36 28.8362 36 20C36 11.1638 28.8362 4 20 4ZM6 20C6 12.2681 12.2653 6 20 6C27.7316 6 34 12.2684 34 20C34 27.7316 27.7316 34 20 34C12.2653 34 6 27.7319 6 20Z" fill="currentColor"/>
    </g>
  </g>
</svg>
