<svg width="40" height="40" viewBox="0 0 40 40" fill="none" xmlns="http://www.w3.org/2000/svg" data-seed-icon="true" data-seed-icon-version="0.3.4">
  <g>
    <g>
      <path d="M12 20H16V16H12V20Z" fill="currentColor"/>
      <path d="M18 20H22V16H18V20Z" fill="currentColor"/>
      <path d="M24 20H28V16H24V20Z" fill="currentColor"/>
      <path d="M12 26H16V22H12V26Z" fill="currentColor"/>
      <path d="M18 26H22V22H18V26Z" fill="currentColor"/>
      <path d="M24 26H28V22H24V26Z" fill="currentColor"/>
      <path fill-rule="evenodd" clip-rule="evenodd" d="M29.75 9.5V11H33V31H7V11H10.2341V9.5H10.2373C10.2532 8.59505 10.9736 8 11.8591 8C12.7478 8 13.4683 8.59505 13.4841 9.5H13.4873V11H18.3401V9.5H18.3464C18.3623 8.59505 19.0796 8 19.9683 8C20.8569 8 21.5742 8.59505 21.5901 9.5H21.5964V11H26.4968V9.5H26.5C26.5159 8.59505 27.2363 8 28.125 8C29.0137 8 29.731 8.59505 29.7468 9.5H29.75ZM10 28H30V14H10V28Z" fill="currentColor"/>
    </g>
  </g>
</svg>
