<svg width="40" height="40" viewBox="0 0 40 40" fill="none" xmlns="http://www.w3.org/2000/svg" data-seed-icon="true" data-seed-icon-version="0.3.4">
  <g>
    <g>
      <path d="M9.5 12C10.8802 12 12 10.8802 12 9.5C12 8.11979 10.8802 7 9.5 7C8.11979 7 7 8.11979 7 9.5C7 10.8802 8.11979 12 9.5 12Z" fill="currentColor"/>
      <path d="M16.5 12C17.8802 12 19 10.8802 19 9.5C19 8.11979 17.8802 7 16.5 7C15.1198 7 14 8.11979 14 9.5C14 10.8802 15.1198 12 16.5 12Z" fill="currentColor"/>
      <path d="M26 9.5C26 10.8802 24.8802 12 23.5 12C22.1198 12 21 10.8802 21 9.5C21 8.11979 22.1198 7 23.5 7C24.8802 7 26 8.11979 26 9.5Z" fill="currentColor"/>
      <path d="M30.5 12C31.8802 12 33 10.8802 33 9.5C33 8.11979 31.8802 7 30.5 7C29.1198 7 28 8.11979 28 9.5C28 10.8802 29.1198 12 30.5 12Z" fill="currentColor"/>
      <path d="M15.5 16.5C15.5 17.8802 14.3802 19 13 19C11.6198 19 10.5 17.8802 10.5 16.5C10.5 15.1198 11.6198 14 13 14C14.3802 14 15.5 15.1198 15.5 16.5Z" fill="currentColor"/>
      <path d="M20 19C21.3802 19 22.5 17.8802 22.5 16.5C22.5 15.1198 21.3802 14 20 14C18.6198 14 17.5 15.1198 17.5 16.5C17.5 17.8802 18.6198 19 20 19Z" fill="currentColor"/>
      <path d="M29.5 16.5C29.5 17.8802 28.3802 19 27 19C25.6198 19 24.5 17.8802 24.5 16.5C24.5 15.1198 25.6198 14 27 14C28.3802 14 29.5 15.1198 29.5 16.5Z" fill="currentColor"/>
      <path d="M20 33C21.3802 33 22.5 31.8802 22.5 30.5C22.5 29.1198 21.3802 28 20 28C18.6198 28 17.5 29.1198 17.5 30.5C17.5 31.8802 18.6198 33 20 33Z" fill="currentColor"/>
      <path d="M19 23.5C19 24.8802 17.8802 26 16.5 26C15.1198 26 14 24.8802 14 23.5C14 22.1198 15.1198 21 16.5 21C17.8802 21 19 22.1198 19 23.5Z" fill="currentColor"/>
      <path d="M23.5 26C24.8802 26 26 24.8802 26 23.5C26 22.1198 24.8802 21 23.5 21C22.1198 21 21 22.1198 21 23.5C21 24.8802 22.1198 26 23.5 26Z" fill="currentColor"/>
    </g>
  </g>
</svg>
