<svg width="40" height="40" viewBox="0 0 40 40" fill="none" xmlns="http://www.w3.org/2000/svg" data-seed-icon="true" data-seed-icon-version="0.3.4">
  <g>
    <g>
      <path d="M20.0197 22.6564L18.7632 21.5822L24.4728 14.9155L25.7293 15.9897L20.0197 22.6564Z" fill="currentColor"/>
      <path fill-rule="evenodd" clip-rule="evenodd" d="M33 22.0016C33 15.1598 27.7105 9.5671 21 9.05496V7H22.4285V5H17.5493V7H19V9.05362C12.2885 9.56749 7 15.1586 7 22.0016C7 29.1806 12.8194 35.0001 19.9984 35.0001C27.1806 35.0001 33 29.1806 33 22.0016ZM19.9984 32.5605C14.179 32.5605 9.43958 27.8242 9.43958 22.0016C9.43958 16.1759 14.179 11.4396 19.9984 11.4396C25.8242 11.4396 30.5604 16.1759 30.5604 22.0016C30.5604 27.8242 25.8242 32.5605 19.9984 32.5605Z" fill="currentColor"/>
    </g>
  </g>
</svg>
