<svg width="40" height="40" viewBox="0 0 40 40" fill="none" xmlns="http://www.w3.org/2000/svg" data-seed-icon="true" data-seed-icon-version="0.3.4">
  <g>
    <g>
      <path d="M18.2149 28H15.522L21.785 12H24.4779L18.2149 28Z" fill="currentColor"/>
      <path d="M11.9049 12.3438L6.75451 18.1944L6.73923 18.1806L5 20.1597L5.01223 20.1736L5 20.1875L6.73923 22.1632L6.75451 22.1493L11.9049 28L13.6442 26.0243L8.49374 20.1736L13.6442 14.3194L11.9049 12.3438Z" fill="currentColor"/>
      <path d="M35.0001 20.1562L33.2609 18.1806L33.2487 18.1944L28.0952 12.3438L26.356 14.3194L31.5064 20.1736L26.356 26.0243L28.0952 28L33.2487 22.1493L33.2609 22.1632L35.0001 20.1875L34.9879 20.1736L35.0001 20.1562Z" fill="currentColor"/>
    </g>
  </g>
</svg>
