<svg width="40" height="40" viewBox="0 0 40 40" fill="none" xmlns="http://www.w3.org/2000/svg" data-seed-icon="true" data-seed-icon-version="0.3.4">
  <g>
    <path d="M21.8886 20.5701C21.8886 19.8647 22.4678 19.2906 23.1794 19.2906C23.891 19.2906 24.4669 19.8647 24.4669 20.5701C24.4669 21.2755 23.891 21.8463 23.1794 21.8463C22.4678 21.8463 21.8886 21.2755 21.8886 20.5701ZM19.3665 13.0375C19.3665 12.3354 19.9391 11.7678 20.6441 11.7678C21.3524 11.7678 21.925 12.3354 21.925 13.0375C21.925 13.7363 21.3524 14.3038 20.6441 14.3038C19.9391 14.3038 19.3665 13.7363 19.3665 13.0375ZM15.13 18.0505C15.13 17.3549 15.6993 16.7907 16.401 16.7907C17.1026 16.7907 17.6719 17.3549 17.6719 18.0505C17.6719 18.746 17.1026 19.3103 16.401 19.3103C15.6993 19.3103 15.13 18.746 15.13 18.0505ZM18.0956 26.0293C17.3906 26.0293 16.8246 25.465 16.8246 24.7695C16.8246 24.0707 17.3906 23.5096 18.0956 23.5096C18.7972 23.5096 19.3665 24.0707 19.3665 24.7695C19.3665 25.465 18.7972 26.0293 18.0956 26.0293ZM24.0267 29.4216C23.3151 29.4216 22.7392 28.8507 22.7392 28.1454C22.7392 27.44 23.3151 26.8691 24.0267 26.8691C24.7383 26.8691 25.3142 27.44 25.3142 28.1454C25.3142 28.8507 24.7383 29.4216 24.0267 29.4216ZM31.2122 31.0488L27.6707 25.2058H30.1961L27.449 20.9933H30.2126L20.2138 5.04883L10.215 20.9933H12.9522L10.1952 25.2058H12.7536L9.21216 31.0488" fill="currentColor"/>
  </g>
</svg>
