<svg width="40" height="40" viewBox="0 0 40 40" fill="none" xmlns="http://www.w3.org/2000/svg" data-seed-icon="true" data-seed-icon-version="0.3.4">
  <g>
    <g>
      <path d="M31 34H17V17H29.3529L31 34Z" fill="currentColor"/>
      <path d="M9.74743 17L8 33.9485L11.4983 30.7053C11.4983 30.7053 15 33.9003 15 34V17" fill="currentColor"/>
      <path d="M9.74743 34L11.4983 32.3526L13.2491 34" fill="currentColor"/>
      <path d="M17.2902 5.83333C17.2902 6.29232 16.9191 6.66667 16.4569 6.66667C15.9979 6.66667 15.6235 6.29232 15.6235 5.83333C15.6235 5.37109 15.9979 5 16.4569 5C16.9191 5 17.2902 5.37109 17.2902 5.83333Z" fill="currentColor"/>
      <path d="M23.1527 7.49967C23.6117 7.49967 23.986 7.12533 23.986 6.66634C23.986 6.2041 23.6117 5.83301 23.1527 5.83301C22.6904 5.83301 22.3193 6.2041 22.3193 6.66634C22.3193 7.12533 22.6904 7.49967 23.1527 7.49967Z" fill="currentColor"/>
      <path d="M18.9337 9.16315C19.7084 9.93789 20.7176 10.1853 21.1863 9.71653C21.6551 9.24778 21.4109 8.23867 20.6362 7.46393C19.8614 6.68919 18.8523 6.44179 18.3836 6.91054C17.9116 7.38255 18.159 8.38841 18.9337 9.16315Z" fill="currentColor"/>
      <path d="M23.1493 12.5161L20.6362 14.1665L21.5021 14.9998H25.6688L23.1493 12.5161Z" fill="currentColor"/>
      <path d="M15.6821 14.9997C16.4438 14.2249 16.688 13.2288 16.2192 12.7633C15.7505 12.2946 14.7413 12.5387 13.9699 13.3167C13.4328 13.8506 13.1561 14.4951 13.1886 14.9997H15.6821Z" fill="currentColor"/>
      <path d="M24.3732 11.4354C23.2892 10.8983 22.8432 9.57992 23.3836 8.49268L27.3159 10.4458C26.7755 11.533 25.4604 11.9757 24.3732 11.4354Z" fill="currentColor"/>
      <path d="M17.3195 10.8333C17.3195 9.55404 16.2811 8.51562 15.0018 8.51562C13.7225 8.51562 12.6841 9.55078 12.6841 10.8301L17.3195 10.8333Z" fill="currentColor"/>
      <path d="M18.9862 13.3591C19.4452 13.3591 19.8195 12.9847 19.8195 12.5257C19.8195 12.0635 19.4452 11.6924 18.9862 11.6924C18.5239 11.6924 18.1528 12.0635 18.1528 12.5257C18.1528 12.9847 18.5239 13.3591 18.9862 13.3591Z" fill="currentColor"/>
    </g>
  </g>
</svg>
