<svg width="40" height="40" viewBox="0 0 40 40" fill="none" xmlns="http://www.w3.org/2000/svg" data-seed-icon="true" data-seed-icon-version="0.3.4">
  <g>
    <g>
      <path fill-rule="evenodd" clip-rule="evenodd" d="M8.23256 18.1852C9.25581 17.6602 10.4651 17.2545 11.7807 17.2545C15.4585 17.2545 18.3488 20.4045 18.4684 20.5409L19 21.1273L18.4684 21.717C18.3488 21.85 15.4585 25 11.7807 25C8.10299 25 5.2093 21.85 5.0897 21.717L4.55814 21.1273L4.56146 21.1239L3 19.6545L4.14618 18.3659L5.76412 19.8864C6.03322 19.6477 6.36877 19.3716 6.76744 19.0818L5.35548 16.9955L6.75415 16L8.23256 18.1852ZM6.94684 21.1273C7.86711 21.9318 9.71761 23.2682 11.7807 23.2682C13.8439 23.2682 15.691 21.9318 16.6113 21.1273C16.01 20.6057 15.0133 19.8625 13.8239 19.4023C14.0698 19.7943 14.2193 20.258 14.2193 20.7591C14.2193 22.1432 13.1262 23.2648 11.7807 23.2648C10.4319 23.2648 9.33887 22.1432 9.33887 20.7591C9.33887 20.258 9.48837 19.7943 9.73754 19.4023C8.54485 19.8591 7.54817 20.6057 6.94684 21.1273Z" fill="currentColor"/>
      <path fill-rule="evenodd" clip-rule="evenodd" d="M35.8538 18.3659L37 19.6545L35.4385 21.1239L35.4419 21.1273L34.9103 21.717C34.7907 21.85 31.9003 25 28.2226 25C24.5415 25 21.6545 21.85 21.5349 21.717L21 21.1273L21.5349 20.5409C21.6545 20.4045 24.5415 17.2545 28.2226 17.2545C29.5382 17.2545 30.7475 17.6602 31.7708 18.1852L33.2492 16L34.6478 16.9955L33.2326 19.0818C33.6312 19.3716 33.9701 19.6477 34.2359 19.8864L35.8538 18.3659ZM23.3887 21.1273C24.3123 21.9318 26.1561 23.2682 28.2226 23.2682C30.2857 23.2682 32.1329 21.9318 33.0532 21.1273C32.4518 20.6057 31.4552 19.8625 30.2658 19.4023C30.5149 19.7943 30.6611 20.258 30.6611 20.7591C30.6611 22.1432 29.5681 23.2648 28.2226 23.2648C26.8738 23.2648 25.7841 22.1432 25.7841 20.7591C25.7841 20.258 25.9302 19.7943 26.1794 19.4023C24.9867 19.8591 23.99 20.6057 23.3887 21.1273Z" fill="currentColor"/>
    </g>
  </g>
</svg>
