<svg width="40" height="40" viewBox="0 0 40 40" fill="none" xmlns="http://www.w3.org/2000/svg" data-seed-icon="true" data-seed-icon-version="0.3.4">
  <g>
    <path d="M20.0132 32.0769C18.61 32.0769 17.6063 31.0732 17.6063 29.67C17.6063 28.2993 18.61 27.3281 20.0132 27.3281C21.4197 27.3281 22.4559 28.2993 22.4559 29.67C22.4559 31.0732 21.4197 32.0769 20.0132 32.0769ZM18.0416 7.97553H21.9881V14.3939L21.0526 25.0219H18.9771L18.0416 14.3939V7.97553ZM20.0002 5.00021C11.7174 5.00021 5.00024 11.7174 5.00024 20.0002C5.00024 28.283 11.7174 35.0002 20.0002 35.0002C28.2831 35.0002 35.0002 28.283 35.0002 20.0002C35.0002 11.7174 28.2831 5.00021 20.0002 5.00021Z" fill="currentColor"/>
  </g>
</svg>
