<svg width="40" height="40" viewBox="0 0 40 40" fill="none" xmlns="http://www.w3.org/2000/svg" data-seed-icon="true" data-seed-icon-version="0.3.4">
  <g>
    <g>
      <path d="M9.83338 27V25H14V23H5.00005C4.44777 23 4.00005 22.556 4.00005 22.0038L4 6.99849C4 6.44621 4.44771 6 5 6H29C29.5523 6 30 6.44772 30 7V15H28V7.80013H6.00005V20.9967H22V23H19V25H22V27H9.83338Z" fill="currentColor"/>
      <path fill-rule="evenodd" clip-rule="evenodd" d="M24 33C24 33.5523 24.4477 34 25 34H35C35.5523 34 36 33.5523 36 33V18C36 17.4477 35.5523 17 35 17H25C24.4477 17 24 17.4477 24 18V33ZM34 19V30H26V19H34ZM31 32C31 32.5523 30.5523 33 30 33C29.4477 33 29 32.5523 29 32C29 31.4477 29.4477 31 30 31C30.5523 31 31 31.4477 31 32Z" fill="currentColor"/>
    </g>
  </g>
</svg>
