<svg width="40" height="40" viewBox="0 0 40 40" fill="none" xmlns="http://www.w3.org/2000/svg" data-seed-icon="true" data-seed-icon-version="0.3.4">
  <g>
    <g>
      <path d="M13.3184 6.13379C12.1726 6.13379 11.2416 6.96875 11.2416 8H15.392C15.392 6.96875 14.4643 6.13379 13.3184 6.13379Z" fill="currentColor"/>
      <path d="M22.4851 6.13379C21.3393 6.13379 20.4115 6.96875 20.4115 8H24.5587C24.5587 6.96875 23.6277 6.13379 22.4851 6.13379Z" fill="currentColor"/>
      <path d="M19.1715 8L18.3381 5H15.7958L16.6292 8H19.1715Z" fill="currentColor"/>
      <path d="M28.7582 5H26.2126L25.3793 8H27.9249L28.7582 5Z" fill="currentColor"/>
      <path d="M19.9467 29.9778C17.0479 29.9778 14.6973 27.5994 14.6973 24.6619C14.6973 21.7244 17.0479 19.3459 19.9467 19.3459C22.8421 19.3459 25.1927 21.7244 25.1927 24.6619C25.1927 27.5994 22.8421 29.9778 19.9467 29.9778ZM27.8072 17.0001H12.0828L10 33.0001H30" fill="currentColor"/>
      <path d="M12.0426 13.3301H12.0752C12.0785 13.3301 12.0785 13.3333 12.0817 13.3333C12.085 13.3333 12.085 13.3301 12.0882 13.3301H16.665V15H23.335V13.3301H27.8857C27.8955 13.3301 27.9085 13.3333 27.9183 13.3333C28.6084 13.3333 29.1683 12.7734 29.1683 12.0833V10H10.8382V12.0378C10.835 12.054 10.8317 12.0671 10.8317 12.0833C10.8317 12.7572 11.3688 13.3073 12.0426 13.3268" fill="currentColor"/>
    </g>
  </g>
</svg>
