<svg width="40" height="40" viewBox="0 0 40 40" fill="none" xmlns="http://www.w3.org/2000/svg" data-seed-icon="true" data-seed-icon-version="0.3.4">
  <g>
    <g>
      <path fill-rule="evenodd" clip-rule="evenodd" d="M17.4325 23.0152V21.4914H21.7638C22.2205 16.9003 21.6334 12.7348 20.0189 7H4.99615C2.36733 15.9613 2.3021 20.8383 4.99615 29.8808H19.4938C19.4462 29.8052 19.3971 29.7304 19.348 29.6557C19.2558 29.5153 19.1637 29.3751 19.0828 29.2309C17.987 27.2392 17.4325 25.1467 17.4325 23.0152ZM14.8656 14.2814C14.7711 14.5674 14.6243 14.8143 14.409 15.006C14.3275 15.084 14.2362 15.1522 14.1351 15.2139C13.9785 15.3017 13.8122 15.3667 13.6426 15.4121C13.4338 15.4739 13.2153 15.5064 12.9935 15.5129C12.8733 15.519 12.7532 15.5187 12.6306 15.5185C12.5569 15.5183 12.4823 15.5182 12.4064 15.5194L12.4065 15.5152C12.4098 15.322 12.4165 14.9289 12.4521 14.5966C12.4814 14.3074 12.5695 14.0247 12.7228 13.7778C12.8467 13.5731 13.0066 13.4041 13.2283 13.2742C13.2316 13.2742 13.2316 13.2742 13.2349 13.2709C13.238 13.2694 13.2408 13.2676 13.2433 13.2658C13.3951 13.1803 13.58 13.1139 13.7208 13.0756C13.9328 13.0204 14.4547 12.9781 14.957 12.9781C14.957 13.3421 14.9407 13.9951 14.8363 14.3103C14.745 14.5832 14.6047 14.8204 14.4058 15.0056C14.6243 14.8139 14.7711 14.5674 14.8656 14.2814ZM13.2862 13.2373C13.4019 13.1732 13.5357 13.1184 13.6555 13.0796C13.5357 13.1177 13.4019 13.1712 13.2862 13.2373ZM12.958 16.299C12.8667 16.3867 12.7913 16.4844 12.7228 16.5949C12.5695 16.8418 12.4814 17.1245 12.4521 17.4136C12.4165 17.7459 12.4098 18.1391 12.4065 18.3323L12.4064 18.3364C12.4823 18.3352 12.5569 18.3354 12.6305 18.3355C12.7531 18.3358 12.8733 18.336 12.9935 18.3299C13.2153 18.3202 13.4338 18.2909 13.6426 18.2292C13.8122 18.1837 13.9785 18.1187 14.1351 18.031C14.3242 17.9205 14.4743 17.7776 14.5917 17.6118L14.5947 17.6081C14.6978 17.466 14.7784 17.3047 14.8367 17.1275C14.941 16.8091 14.9573 16.1592 14.9573 15.7953C14.4551 15.7953 13.9332 15.8343 13.7212 15.8928C13.5777 15.9318 13.3853 16.0033 13.2287 16.091C13.1276 16.1495 13.0395 16.2242 12.958 16.299ZM14.7319 20.1982L12.7619 19.3586C12.882 19.1818 13.028 19.0238 13.2285 18.9079C13.385 18.8202 13.5774 18.7487 13.721 18.7097C13.933 18.6512 14.4548 18.6122 14.9571 18.6122C14.9571 18.9761 14.9408 19.626 14.8364 19.9444C14.8038 20.0354 14.7711 20.117 14.7319 20.1982ZM14.8656 19.8895L14.8729 19.8668L14.8688 19.8799L14.8656 19.8895ZM13.7568 18.661C13.6789 18.6799 13.5891 18.709 13.4989 18.7452C13.589 18.7086 13.6788 18.6788 13.7567 18.6581C13.9655 18.6028 14.4873 18.5606 14.9863 18.5606V18.5635C14.4873 18.5635 13.9656 18.6025 13.7568 18.661ZM14.745 22.9795C14.6145 23.2622 14.4188 23.4994 14.1351 23.6618C13.9785 23.7528 13.8122 23.8178 13.6426 23.8633C13.4338 23.925 13.2153 23.9543 12.9935 23.964C12.8566 23.9709 12.7198 23.9697 12.5794 23.9683C12.5224 23.9678 12.4648 23.9673 12.4064 23.9673L12.4065 23.9642C12.4098 23.7713 12.4164 23.3805 12.4521 23.0477C12.4814 22.7586 12.5695 22.4759 12.7228 22.2289C12.7267 22.2212 12.7317 22.2157 12.7366 22.2105C12.7398 22.207 12.743 22.2036 12.7456 22.1997L12.7462 22.1985C12.8668 22.0072 13.0199 21.8451 13.2283 21.7251C13.3849 21.6374 13.5773 21.5659 13.7208 21.5269C13.9328 21.4684 14.4547 21.4294 14.9569 21.4294C14.9569 21.7901 14.9406 22.4432 14.8363 22.7616C14.8102 22.8363 14.7776 22.908 14.745 22.9795ZM11.4899 15.4804V15.5194C11.4128 15.5181 11.3379 15.5183 11.2643 15.5185C11.142 15.5187 11.023 15.519 10.9028 15.5129C10.6811 15.5064 10.4625 15.4739 10.2538 15.4121C10.0809 15.3667 9.91785 15.3017 9.7613 15.2139C9.40579 15.0092 9.18726 14.6941 9.06006 14.3107C8.95569 13.9955 8.93938 13.3424 8.93938 12.9785H8.99483C9.47754 12.9818 9.97359 13.0204 10.1758 13.0756C10.3193 13.1146 10.5117 13.1861 10.6683 13.2738C10.8901 13.4038 11.0466 13.576 11.1738 13.7774C11.3239 14.0244 11.4152 14.3071 11.4446 14.5962C11.4723 14.8675 11.4812 15.1741 11.4872 15.3835L11.4899 15.4804ZM10.3416 13.0847C10.4539 13.1221 10.5771 13.1729 10.6855 13.2319C10.5771 13.1712 10.4539 13.1214 10.3416 13.0847ZM11.5356 15.4804H11.5326C11.5308 15.3743 11.5279 15.2078 11.5204 15.0246C11.5258 15.1503 11.5292 15.2676 11.532 15.3626C11.5333 15.4071 11.5344 15.4472 11.5356 15.4804ZM11.4899 18.2877V18.3364C11.4128 18.3352 11.3379 18.3354 11.2643 18.3355C11.142 18.3358 11.023 18.336 10.9028 18.3299C10.6811 18.3202 10.4625 18.2909 10.2538 18.2292C10.0809 18.1837 9.91785 18.1187 9.7613 18.031C9.40579 17.8263 9.18726 17.5111 9.06006 17.1277C8.95569 16.8093 8.93938 16.1595 8.93938 15.7956H8.99483C9.47754 15.7988 9.97359 15.8376 10.1758 15.8928C10.3193 15.9318 10.5117 16.0033 10.6683 16.091C10.8901 16.221 11.0466 16.3899 11.1738 16.5946C11.3239 16.8416 11.4152 17.1243 11.4446 17.4134C11.4772 17.7254 11.4837 18.0828 11.487 18.2842C11.4956 18.2842 11.5042 18.2851 11.5123 18.286C11.5196 18.2867 11.5265 18.2875 11.5326 18.2875L11.5326 18.284C11.5308 18.1805 11.5281 18.0201 11.5209 17.8424C11.5261 17.9646 11.5294 18.0788 11.5321 18.1719C11.5333 18.2156 11.5345 18.2546 11.5356 18.2877H11.4899ZM11.4899 21.0917V21.1535C11.4128 21.1522 11.3379 21.1524 11.2643 21.1525C11.142 21.1528 11.023 21.1531 10.9028 21.147C10.6811 21.1372 10.4625 21.108 10.2538 21.0462C10.0809 21.0008 9.91785 20.9358 9.7613 20.848C9.40579 20.6433 9.18726 20.3282 9.06006 19.9448C8.95569 19.6263 8.93938 18.9765 8.93938 18.6126H8.99483C9.47754 18.6158 9.97359 18.6548 10.1758 18.71C10.3193 18.749 10.5117 18.8205 10.6683 18.9082C10.8901 19.0382 11.0466 19.2071 11.1738 19.4118C11.3239 19.6588 11.4152 19.9415 11.4446 20.2306C11.4772 20.5361 11.4837 20.8837 11.487 21.0917H11.5326L11.5326 21.0882C11.5307 20.982 11.5279 20.816 11.5203 20.6333C11.5259 20.7604 11.5293 20.8795 11.5321 20.9759C11.5333 21.0196 11.5345 21.0587 11.5356 21.0917H11.4899ZM11.3147 23.9683C11.1744 23.9697 11.0395 23.9709 10.9028 23.964C10.6811 23.9543 10.4625 23.925 10.2538 23.8633C10.0809 23.8178 9.91785 23.7528 9.7613 23.6618C9.40579 23.4571 9.18726 23.1452 9.06006 22.7618C8.95569 22.4434 8.93938 21.7903 8.93938 21.4296H8.99483C9.47754 21.4329 9.97359 21.4717 10.1758 21.5269C10.3226 21.5659 10.5117 21.6374 10.6683 21.7251C10.8901 21.8518 11.0499 22.024 11.1738 22.2287C11.3271 22.4756 11.4152 22.7583 11.4446 23.0475C11.4731 23.3093 11.4817 23.6036 11.4877 23.8123L11.4902 23.8955L11.4899 23.9673C11.4304 23.9673 11.372 23.9678 11.3147 23.9683Z" fill="currentColor"/>
      <path d="M18.9624 23.0151H38.0001C38.0001 27.1319 35.6486 30.7677 32.5305 32.9999H24.4484C22.8241 31.8367 21.4151 30.2868 20.4268 28.4965C19.5169 26.8459 18.9624 24.9874 18.9624 23.0151Z" fill="currentColor"/>
      <path d="M34.9896 22.0174L35.1233 21.4911L37.002 14.0342H36.0007L34.122 21.4911L33.9883 22.0174H34.9896Z" fill="currentColor"/>
      <path d="M33.0522 21.4911L32.987 22.0174H31.9824L32.0509 21.4911L32.9902 14.0342H33.9915L33.0522 21.4911Z" fill="currentColor"/>
    </g>
  </g>
</svg>
