<svg width="40" height="40" viewBox="0 0 40 40" fill="none" xmlns="http://www.w3.org/2000/svg" data-seed-icon="true" data-seed-icon-version="0.3.4">
  <g>
    <g>
      <path d="M28.4656 14.2257L24.6096 18.8201L21.499 16.2465L25.355 11.6521L22.3388 9.1565C24.4681 6.6141 28.2706 6.27053 30.8307 8.38816C33.3877 10.5058 33.7337 14.2788 31.6044 16.8212L28.4656 14.2257Z" fill="currentColor"/>
      <path d="M13.0293 15.2686C9.69855 15.2686 7 17.9515 7 21.256H10.9283V27.2404H14.9761V21.256H19.0586C19.0586 17.9515 16.36 15.2686 13.0293 15.2686Z" fill="currentColor"/>
      <path d="M24.0405 21.8152C21.2445 23.6112 20.4424 27.3155 22.2509 30.0952L25.547 27.9776L28.818 33L32.2179 30.8199L28.947 25.7944L32.3752 23.5924C30.5667 20.8158 26.8366 20.0193 24.0405 21.8152Z" fill="currentColor"/>
    </g>
  </g>
</svg>
