<svg width="40" height="40" viewBox="0 0 40 40" fill="none" xmlns="http://www.w3.org/2000/svg" data-seed-icon="true" data-seed-icon-version="0.3.4">
  <g>
    <g>
      <path fill-rule="evenodd" clip-rule="evenodd" d="M31.0337 16.2159H30.2659L28.3752 10H11.5832L9.69251 16.2159H8.96632C5.67764 16.2159 3.0064 18.5238 3.0032 21.7841H3V26H5.11981C5.19979 25.6056 5.31907 25.2227 5.47542 24.8574C5.77951 24.1434 6.21704 23.4973 6.75879 22.9556C7.30062 22.4137 7.94688 21.9762 8.66098 21.672C9.38589 21.3618 10.1788 21.1968 10.9982 21.1968C11.4158 21.1968 11.8189 21.2398 12.209 21.32C14.5548 21.8002 16.4036 23.652 16.8801 26H23.1193C23.6726 23.2693 26.0842 21.2109 28.9724 21.1968L28.9821 21.1968H28.9994C31.8993 21.1968 34.3255 23.2599 34.8807 26H37V21.7968C37 18.527 34.3288 16.2159 31.0337 16.2159ZM20.9341 16.2159V11.7746H26.7149L27.9562 16.2159H20.9341ZM19.1043 16.2159H12.079L13.3235 11.7746H19.1043V16.2159Z" fill="currentColor"/>
      <path d="M8.173 30.0238C8.5342 30.3886 8.96692 30.6782 9.44613 30.8821C9.92177 31.0859 10.4475 31.1968 10.9982 31.1968C11.2772 31.1968 11.5454 31.1717 11.8064 31.1145C13.6267 30.7426 15 29.1297 15 27.1986C15 25.2674 13.6267 23.651 11.8064 23.279C11.5454 23.2254 11.2772 23.1968 10.9982 23.1968C10.4475 23.1968 9.92177 23.3076 9.44613 23.5115C8.96692 23.7153 8.5342 24.0086 8.173 24.3698C7.8118 24.731 7.51855 25.1637 7.31471 25.6429C7.11086 26.1185 7 26.6478 7 27.1986C7 27.7493 7.11086 28.275 7.31471 28.7542C7.51855 29.2334 7.8118 29.6626 8.173 30.0238Z" fill="currentColor"/>
      <path d="M29 23.1968H28.9821C26.7837 23.2075 25 24.9956 25 27.195C25 29.3944 26.7837 31.186 28.9821 31.1932L28.9837 31.1934L28.9882 31.1945C28.9916 31.1956 28.9958 31.1968 29 31.1968C31.2055 31.1968 33 29.4015 33 27.195C33 24.9885 31.2055 23.1968 29 23.1968Z" fill="currentColor"/>
    </g>
  </g>
</svg>
