<svg width="40" height="40" viewBox="0 0 40 40" fill="none" xmlns="http://www.w3.org/2000/svg" data-seed-icon="true" data-seed-icon-version="0.3.4">
  <g>
    <g>
      <path d="M20.1565 8.57083C26.4252 8.57083 31.5238 13.6456 31.5238 19.8849C31.5238 26.1242 26.4252 31.199 20.1565 31.199C13.8879 31.199 8.78925 26.1242 8.78925 19.8849C8.78925 13.6456 13.8879 8.57083 20.1565 8.57083ZM20.1565 33C27.3708 33 33.2177 27.1805 33.2177 20C33.2177 12.8195 27.3708 7 20.1565 7C12.9423 7 7.09538 12.8195 7.09538 20C7.09538 27.1805 12.9423 33 20.1565 33Z" fill="currentColor"/>
      <path d="M16.1122 17.6639C16.4727 16.997 17.1394 16.5738 17.8979 16.5332C17.9387 16.5332 17.9795 16.5332 18.0237 16.5332C18.9353 16.5332 19.7516 17.041 20.1802 17.8061C20.6087 17.041 21.4421 16.5332 22.357 16.5332C22.3978 16.5332 22.4421 16.5332 22.4829 16.5332C23.238 16.5738 23.9046 16.997 24.2652 17.6639C24.6393 18.3579 24.6461 19.1839 24.221 19.8373C24.0509 20.098 20.1802 24.3738 20.1802 24.3738C20.1802 24.3738 16.3264 20.098 16.1564 19.8373C15.7346 19.1839 15.738 18.3579 16.1122 17.6639ZM20.1564 29.7194C25.5407 29.7194 29.9216 25.3589 29.9216 19.9998C29.9216 14.6373 25.5407 10.2769 20.1564 10.2769C14.772 10.2769 10.3877 14.6373 10.3877 19.9998C10.3877 25.3589 14.772 29.7194 20.1564 29.7194Z" fill="currentColor"/>
      <path d="M3.21088 15.6394V31.2462H4.95237V15.6597C5.68025 15.3313 6.19386 14.6035 6.19386 13.7571L5.40134 8.73316H2.79251L2 13.7571C2 14.5899 2.4966 15.3076 3.21088 15.6394Z" fill="currentColor"/>
      <path d="M36.2991 17.0308V31.2462H37.9964V15.2941H37.9998V8.71285H37.1291L35.3876 15.2941H35.3604C35.3604 16.0186 35.7345 16.655 36.2991 17.0308Z" fill="currentColor"/>
    </g>
  </g>
</svg>
