<svg width="40" height="40" viewBox="0 0 40 40" fill="none" xmlns="http://www.w3.org/2000/svg" data-seed-icon="true" data-seed-icon-version="0.3.4">
  <g>
    <g>
      <path d="M20.0014 9C18.6182 9 17.5 10.1182 17.5 11.4986C17.5 12.8818 18.6182 14 20.0014 14C21.3818 14 22.5 12.8818 22.5 11.4986C22.5 10.1182 21.3818 9 20.0014 9Z" fill="currentColor"/>
      <path d="M20.0014 16C18.6182 16 17.5 17.1182 17.5 18.4986C17.5 19.8818 18.6182 21 20.0014 21C21.3818 21 22.5 19.8818 22.5 18.4986C22.5 17.1182 21.3818 16 20.0014 16Z" fill="currentColor"/>
      <path d="M20.0014 23C18.6182 23 17.5 24.1182 17.5 25.4986C17.5 25.6704 17.5172 25.838 17.5501 26H22.4499C22.4828 25.838 22.5 25.6704 22.5 25.4986C22.5 24.1182 21.3818 23 20.0014 23Z" fill="currentColor"/>
      <path fill-rule="evenodd" clip-rule="evenodd" d="M28.984 6.08724C28.9041 5.47201 28.396 5 27.7727 5C27.7647 5 27.7568 5.00081 27.7488 5.00163C27.7408 5.00244 27.7328 5.00326 27.7248 5.00326V5H12.2049C11.5369 5.01302 11 5.56641 11 6.25V33.75C11 34.4271 11.5273 34.974 12.1857 34.9935V35H27.7408V34.9935C27.7434 34.9942 27.746 34.9948 27.7484 34.9955C27.7576 34.998 27.7651 35 27.7727 35C28.4535 35 29 34.4401 29 33.75V6.08724H28.984ZM13 28H27V7H13V28ZM18.5015 31.5C18.5015 32.3275 19.1711 33 20.0015 33C20.829 33 21.4985 32.3275 21.4985 31.5C21.4985 30.6725 20.829 30 20.0015 30C19.1711 30 18.5015 30.6725 18.5015 31.5Z" fill="currentColor"/>
    </g>
  </g>
</svg>
