<svg width="40" height="40" viewBox="0 0 40 40" fill="none" xmlns="http://www.w3.org/2000/svg" data-seed-icon="true" data-seed-icon-version="0.3.4">
  <g>
    <path fill-rule="evenodd" clip-rule="evenodd" d="M31 9V17H37V23H31V31H5V9H31ZM18.8737 13.3783L28.0534 17.2943L28.8411 15.4453L19.6615 11.5326L18.8737 13.3783ZM22.8581 23.3066C23.8281 24.2734 25.3971 24.2734 26.3639 23.3066C27.334 22.3366 27.334 20.7676 26.3639 19.7975L22.8581 23.3066ZM20.1986 23.8275C19.2318 24.7975 19.2318 26.3665 20.1986 27.3333C21.1686 28.3034 22.7376 28.3034 23.7077 27.3333L20.1986 23.8275ZM13.3333 22.3333C13.3333 23.7103 14.4531 24.8301 15.8333 24.8301C17.2103 24.8301 18.3301 23.7103 18.3301 22.3333C18.3301 20.9531 17.2103 19.8333 15.8333 19.8333C14.4531 19.8333 13.3333 20.9531 13.3333 22.3333ZM7.94271 25.6504C7.94271 27.0273 9.0625 28.1471 10.4395 28.1471C11.8197 28.1471 12.8678 26.9557 12.8678 25.5788C12.8678 24.1986 11.8197 23.1504 10.4395 23.1504C9.0625 23.1504 7.94271 24.2702 7.94271 25.6504ZM11.5951 15.0547L13.3626 13.2871L12.1842 12.1087L10.4167 13.8763L11.5951 15.0547ZM7.5 16.5H9.16667V14H7.5V16.5ZM10 19H11.6667V16.5H10V19ZM20.8659 15.6667H13.3333V18.1569H20.8659V15.6667ZM34.002 21C33.4479 21 33 20.5521 33 19.998C33 19.4479 33.4479 19 34.002 19C34.5521 19 35 19.4479 35 19.998C35 20.5521 34.5521 21 34.002 21Z" fill="currentColor"/>
  </g>
</svg>
