<svg width="40" height="40" viewBox="0 0 40 40" fill="none" xmlns="http://www.w3.org/2000/svg" data-seed-icon="true" data-seed-icon-version="0.3.4">
  <g>
    <g>
      <path d="M12.0994 10.2772L11.4152 8.44021L11.2501 8L9.61349 8.56599L9.85417 9.2081L10.4937 10.9259C10.1396 11.1808 9.85073 11.4952 9.61693 11.8394L12.3504 12.0215L13.7464 10.3765C13.2203 10.2275 12.6599 10.1845 12.0994 10.2772Z" fill="currentColor"/>
      <path d="M15.2729 11.237L13.1308 13.7592L9.0151 13.4844C8.94977 14.1894 9.09418 14.9176 9.49303 15.5829L17.6006 28.1306L19.3301 27.6639L16.2838 12.8357C16.0981 12.1936 15.7336 11.6607 15.2729 11.237Z" fill="currentColor"/>
      <path d="M26.8707 17.9926L24.5704 15.262C24.1888 15.6625 23.8896 16.1457 23.728 16.7084L20.6816 31.5366L22.4111 32L30.5187 19.4556C30.842 18.9161 30.9864 18.3336 31.0001 17.7576" fill="currentColor"/>
      <path d="M30.6185 16.0926C30.3641 15.5928 29.9996 15.1427 29.5148 14.7985L30.0718 13.309L30.395 12.4385L28.7618 11.8725L27.9125 14.1497C27.2661 14.0438 26.6231 14.1199 26.0317 14.3285L27.6615 16.2647" fill="currentColor"/>
    </g>
  </g>
</svg>
