<svg width="40" height="40" viewBox="0 0 40 40" fill="none" xmlns="http://www.w3.org/2000/svg" data-seed-icon="true" data-seed-icon-version="0.3.4">
  <g>
    <g>
      <path d="M16.6683 16.8659C16.6683 15.9447 17.4137 15.1992 18.335 15.1992C19.2529 15.1992 20.0016 15.9447 20.0016 16.8659C20.0016 15.9447 20.7471 15.1992 21.6683 15.1992C22.5895 15.1992 23.335 15.9447 23.335 16.8659C23.335 15.9447 24.0804 15.1992 25.0016 15.1992C25.0472 15.1992 25.096 15.209 25.1416 15.2122C23.9176 13.6693 21.4046 12.4811 20.4183 12.0547V5H19.585V12.0547C18.5954 12.4811 16.0824 13.6693 14.8584 15.2122C14.9072 15.209 14.9528 15.1992 15.0016 15.1992C15.9196 15.1992 16.6683 15.9447 16.6683 16.8659Z" fill="currentColor"/>
      <path d="M25.2588 18.5065C25.1742 18.5195 25.0895 18.5293 25.0016 18.5293C24.0804 18.5293 23.335 17.7839 23.335 16.8626C23.335 17.7839 22.5895 18.5293 21.6683 18.5293C20.7471 18.5293 20.0016 17.7839 20.0016 16.8626C20.0016 17.7839 19.2529 18.5293 18.335 18.5293C17.4137 18.5293 16.6683 17.7839 16.6683 16.8626C16.6683 17.7839 15.9196 18.5293 15.0016 18.5293C14.9105 18.5293 14.8258 18.5195 14.7412 18.5065C16.2126 20.7201 20.0016 22.6992 20.0016 22.6992C20.0016 22.6992 23.7874 20.7201 25.2588 18.5065Z" fill="currentColor"/>
      <path d="M11.2142 21.6864V5H10.3809V21.6864C7.89388 21.8621 5.83985 23.5939 5.18555 25.9181L15.2311 23.7144C14.2448 22.562 12.819 21.8003 11.2142 21.6864Z" fill="currentColor"/>
      <path d="M10.7975 33.3335C13.0729 33.3335 15.0358 32.0282 15.9993 30.1271L7.17122 32.064C8.16732 32.855 9.42383 33.3335 10.7975 33.3335Z" fill="currentColor"/>
      <path d="M5.64453 30.2313L16.6146 27.8224C16.6178 27.715 16.6309 27.6076 16.6309 27.5002C16.6309 26.8491 16.5202 26.2241 16.3216 25.6414L5 28.1252C5.07812 28.8804 5.30273 29.59 5.64453 30.2313Z" fill="currentColor"/>
      <path d="M29.7917 31.8068L27.1419 29.1571L29.7917 26.5106L32.4382 29.1571L29.7917 31.8068ZM34.9935 26.618C34.1048 24.7918 32.2982 23.5028 30.1693 23.353V5H29.3359V23.353C27.2266 23.5028 25.4329 24.769 24.5345 26.5659L27.1257 29.1571L24.5312 31.7547C25.485 33.6753 27.4609 35.0002 29.7526 35.0002C32.0638 35.0002 34.056 33.6525 35 31.7026L32.4544 29.1571" fill="currentColor"/>
    </g>
  </g>
</svg>
