<svg width="40" height="40" viewBox="0 0 40 40" fill="none" xmlns="http://www.w3.org/2000/svg" data-seed-icon="true" data-seed-icon-version="0.3.4">
  <g>
    <g>
      <path fill-rule="evenodd" clip-rule="evenodd" d="M15.3284 10.6076V4H10.6638V10.6076C7.94603 11.5907 5.99609 14.2306 5.99609 17.3426V36.0002H19.9961V17.3426C19.9961 14.2306 18.0462 11.5907 15.3284 10.6076ZM12.9961 11.7664C15.1659 11.7664 17.0393 13.0718 17.9187 14.9533H8.07347C8.95285 13.0718 10.8231 11.7664 12.9961 11.7664ZM13.9961 31H17.9961V23H13.9961V31Z" fill="currentColor"/>
      <path d="M22 20H32V26C32 28.419 30.2822 30.4368 27.9999 30.9L27.9999 34H30.979L30.976 36H22.9766L22.9796 34H25.9999L25.9999 30.9C23.7177 30.4366 22 28.4189 22 26V20Z" fill="currentColor"/>
    </g>
  </g>
</svg>
