<svg width="40" height="40" viewBox="0 0 40 40" fill="none" xmlns="http://www.w3.org/2000/svg" data-seed-icon="true" data-seed-icon-version="0.3.4">
  <g>
    <g>
      <path d="M28.5 14V12L36 7.99675L27.5 3V14H28.5Z" fill="currentColor"/>
      <path fill-rule="evenodd" clip-rule="evenodd" d="M7.07595 28.9083C7.52532 28.358 10 25.2245 10 22.8981C10 21.2993 8.65506 20 7 20C5.34177 20 4 21.2993 4 22.8981C4 25.2245 6.47468 28.3611 6.92405 28.9083C6.96835 28.9633 7 29 7 29C7 29 7.03165 28.9633 7.07595 28.9083ZM5.58861 22.73C5.58861 21.9749 6.21835 21.3635 7 21.3635C7.77848 21.3635 8.41139 21.9749 8.41139 22.73C8.41139 23.482 7.77848 24.0934 7 24.0934C6.21835 24.0934 5.58861 23.482 5.58861 22.73Z" fill="currentColor"/>
      <path d="M28 16C29.1044 16 30 16.8956 30 18C30 19.1016 29.1044 20 28 20C26.8984 20 26 19.1016 26 18C26 16.8956 26.8984 16 28 16Z" fill="currentColor"/>
      <path d="M9 33C9 31.8956 8.10444 31 7 31C5.89843 31 5 31.8956 5 33C5 34.1016 5.89843 35 7 35C8.10444 35 9 34.1016 9 33Z" fill="currentColor"/>
      <path d="M19 17C16.2386 17 14 19.2386 14 22C14 24.7614 16.2386 27 19 27H22.5C23.8807 27 25 28.1193 25 29.5C25 30.8807 23.8807 32 22.5 32H10.9985V34H22.5C24.9853 34 27 31.9853 27 29.5C27 27.0147 24.9853 25 22.5 25H19C17.3431 25 16 23.6569 16 22C16 20.3431 17.3431 19 19 19H24V17H19Z" fill="currentColor"/>
    </g>
  </g>
</svg>
