<svg width="40" height="40" viewBox="0 0 40 40" fill="none" xmlns="http://www.w3.org/2000/svg" data-seed-icon="true" data-seed-icon-version="0.3.4">
  <g>
    <g>
      <path d="M5.93262 17.6079L19.4515 4.08572C12.3161 4.80187 6.64551 10.4724 5.93262 17.6079Z" fill="currentColor"/>
      <path d="M12.0043 18.0019C12.2647 17.7415 12.6065 17.6243 12.9483 17.6374L15.1748 15.4108L13.6514 13.8874L14.5205 13.0182L13.876 12.3737C13.7751 12.2728 13.7751 12.11 13.876 12.0091L14.2992 11.5859C14.4001 11.485 14.5596 11.485 14.6605 11.5859L15.3083 12.2305L16.3435 11.1953L17.8669 12.7187L25.6371 4.94856C24.2536 4.52864 22.7855 4.30077 21.2653 4.30077C21.1981 4.30077 21.1329 4.30506 21.0681 4.30933C21.02 4.3125 20.9721 4.31566 20.9235 4.31705L6.16117 19.0762C6.15977 19.1267 6.15655 19.176 6.15334 19.2251C6.14911 19.29 6.1449 19.3546 6.1449 19.4212C6.1449 20.9414 6.37602 22.4095 6.79268 23.793L11.6429 18.9427C11.6267 18.6042 11.7471 18.2591 12.0043 18.0019Z" fill="currentColor"/>
      <path d="M11.1034 5.92317L9.59949 4.42252L6.27266 7.74934L7.77332 9.25324L11.1034 5.92317Z" fill="currentColor"/>
      <path d="M32.589 34.0688L34.0929 35.5727L37.4197 32.2427L35.9158 30.7388L32.589 34.0688Z" fill="currentColor"/>
      <path d="M28.8414 15.8383L33.8479 10.8286C33.0764 9.8227 32.191 8.91776 31.1982 8.13325L26.1656 13.1625L28.8414 15.8383Z" fill="currentColor"/>
      <path d="M22.8551 19.7773L23.8903 18.7421L24.9124 19.7642L27.0641 17.6125L24.3916 14.94L22.126 17.2089C22.3636 17.7623 22.3278 18.4068 22.0088 18.9342L22.8551 19.7773Z" fill="currentColor"/>
      <path d="M21.1986 21.434L22.2207 22.4562L20.2286 24.4484L17.556 21.7758L19.6491 19.6795C20.1374 19.8911 20.6941 19.8976 21.1791 19.6762L22.0677 20.5649L21.1986 21.434Z" fill="currentColor"/>
      <path d="M9.97777 29.354L15.7785 23.5532L18.4511 26.2257L12.6731 32.0037C11.6672 31.2355 10.7623 30.3468 9.97777 29.354Z" fill="currentColor"/>
      <path d="M36.9644 16.458L33.1786 20.2438C33.452 20.7223 33.3902 21.3441 32.98 21.751C32.5699 22.1611 31.9514 22.223 31.4729 21.9495L29.2626 24.1598C29.2691 24.1631 29.2723 24.1663 29.2789 24.1728C29.9039 24.8011 29.995 25.7549 29.5555 26.4808L30.2456 27.1709C30.3466 27.2718 30.3466 27.4346 30.2456 27.5355L29.8225 27.9554C29.7248 28.0563 29.5588 28.0563 29.4611 27.9554L28.7255 27.223C28.0288 27.5387 27.1825 27.4183 26.6063 26.8454L26.5966 26.8258L23.9598 29.4626C23.9045 29.5635 23.8394 29.6644 23.7515 29.749C23.6669 29.8369 23.566 29.8988 23.465 29.9573L18.3023 35.1201C19.6174 35.4912 20.9943 35.7028 22.4266 35.7028C22.5706 35.7028 22.7106 35.6937 22.8517 35.6845C22.9339 35.6792 23.0166 35.6738 23.1005 35.6702L37.5145 21.2529C37.518 21.1734 37.5232 21.0938 37.5284 21.014C37.5377 20.8717 37.5471 20.7283 37.5471 20.5823C37.5471 19.1501 37.3355 17.7731 36.9644 16.458Z" fill="currentColor"/>
      <path d="M23.3 10.2941L25.3182 12.3124L30.2661 7.36444C29.1919 6.60597 28.0135 5.98748 26.757 5.5285L22.3527 9.9328C22.6912 9.91652 23.0395 10.0337 23.3 10.2941Z" fill="currentColor"/>
      <path d="M16.6333 16.873L16.0246 16.261L14.0292 18.2565C14.0357 18.263 14.043 18.2687 14.0503 18.2744C14.0576 18.2801 14.065 18.2858 14.0715 18.2923L16.7049 20.9258L18.7102 18.9205C18.1991 18.3509 18.0884 17.5566 18.3911 16.8893L17.5025 16.0006L16.6333 16.873Z" fill="currentColor"/>
      <path d="M12.2648 20.0323L12.2583 20.0242L7.37224 24.9135C7.83448 26.17 8.44972 27.3484 9.20818 28.4226L14.9276 22.7032L12.2941 20.0665C12.2833 20.0557 12.2748 20.0449 12.2648 20.0323Z" fill="currentColor"/>
      <path d="M19.1335 16.0592C19.8302 15.6392 20.7351 15.7109 21.3601 16.2675L23.5411 14.0898L21.5229 12.0715C21.2625 11.8111 21.1453 11.4661 21.1615 11.1275L18.7169 13.5689L19.3256 14.1777L18.2904 15.2128L19.1335 16.0592Z" fill="currentColor"/>
      <path d="M37.7068 22.7607L24.6046 35.8629C31.4438 35.0101 36.854 29.5999 37.7068 22.7607Z" fill="currentColor"/>
      <path d="M32.3642 19.3615L36.4039 15.3185C35.9612 14.049 35.3655 12.851 34.6168 11.7605L29.6917 16.6857L32.3642 19.3615Z" fill="currentColor"/>
      <path d="M28.2786 23.4432L30.5866 21.1352L27.914 18.4627L25.7624 20.6144L26.8724 21.7244L25.8372 22.7628L26.6803 23.6059C27.1686 23.313 27.7545 23.2609 28.2786 23.4432Z" fill="currentColor"/>
      <path d="M24.1805 24.4199L25.0496 23.5475L25.9383 24.4362C25.7365 24.8789 25.7332 25.3769 25.8895 25.8327L23.6987 28.0234C23.6401 27.903 23.5653 27.7825 23.4611 27.6816L21.0783 25.2988L23.0705 23.3066L24.1805 24.4199Z" fill="currentColor"/>
      <path d="M19.3009 27.0759L21.687 29.4587C21.7879 29.5596 21.9051 29.6377 22.0288 29.6963L17.1622 34.5596C15.8927 34.1169 14.6948 33.5212 13.6043 32.7725L19.3009 27.0759Z" fill="currentColor"/>
    </g>
  </g>
</svg>
