<svg width="40" height="40" viewBox="0 0 40 40" fill="none" xmlns="http://www.w3.org/2000/svg" data-seed-icon="true" data-seed-icon-version="0.3.4">
  <g>
    <g>
      <path d="M34.8129 25.9158C34.09 24.2423 32.5497 24.3906 31.5532 24.8287L26.0075 27.6618H19.7259L21.8653 26.7394C21.8653 26.7394 21.8491 26.7427 21.8132 26.746C22.6143 26.4264 23.1777 25.6391 23.1777 24.7167C23.1777 23.511 22.2105 22.5359 21.0187 22.5359C20.6833 22.5359 20.3609 22.6149 20.0776 22.7533L11.6694 25.7775V33.4729H24.223C24.5031 33.4729 24.9622 33.3379 25.4149 33.0743L33.4583 29.0421C33.9793 28.8148 35.5326 27.5926 34.8129 25.9158Z" fill="currentColor"/>
      <path d="M9.99537 24.7101H5V34H9.99537V24.7101Z" fill="currentColor"/>
      <path d="M28.759 9.53001C28.759 10.9301 27.6387 12.06 26.258 12.06C24.8773 12.06 23.7571 10.9301 23.7571 9.53001C23.7571 8.13324 24.8773 7 26.258 7C27.6387 7 28.759 8.13324 28.759 9.53001Z" fill="currentColor"/>
      <path d="M34.5947 14.1685C34.5947 15.5686 33.4744 16.6986 32.0937 16.6986C30.713 16.6986 29.5928 15.5686 29.5928 14.1685C29.5928 12.7718 30.713 11.6385 32.0937 11.6385C33.4744 11.6385 34.5947 12.7718 34.5947 14.1685Z" fill="currentColor"/>
      <path d="M30.4267 20.4936C30.4267 21.8936 29.3065 23.0236 27.9257 23.0236C26.545 23.0236 25.4248 21.8936 25.4248 20.4936C25.4248 19.0968 26.545 17.9636 27.9257 17.9636C29.3065 17.9636 30.4267 19.0968 30.4267 20.4936Z" fill="currentColor"/>
    </g>
  </g>
</svg>
