<svg width="40" height="40" viewBox="0 0 40 40" fill="none" xmlns="http://www.w3.org/2000/svg" data-seed-icon="true" data-seed-icon-version="0.3.4">
  <g>
    <g>
      <path d="M12.4318 34H18.48C18.9878 32.2194 19.2808 30.1719 19.2808 27.9941C19.2808 26.0703 19.0464 24.2572 18.646 22.6296L18.6558 22.6361L18.6134 22.5059C18.4507 21.8581 18.2586 21.2461 18.0405 20.6699L15 12.2437H11V18.9121C8.92744 19.9484 7.25362 21.2549 7 23.7949V34" fill="currentColor"/>
      <path d="M7 15.0001H9V9.98693H18V9.24474C18 7.60412 16.0612 6.00011 14.4206 6.00011H7V9.98693" fill="currentColor"/>
      <path d="M31.9654 22.0568C31.9654 22.467 31.6498 22.799 31.2599 22.799C30.8731 22.799 30.5575 22.467 30.5575 22.0568V14.6903C30.5575 14.2801 30.8731 13.9481 31.2599 13.9481C31.6498 13.9481 31.9654 14.2801 31.9654 14.6903V22.0568ZM30.5544 11.3179H26.4203V11.3211C26.0706 11.3179 25.7024 11.3862 25.3218 11.5522C23.2052 12.4637 21.4848 15.771 21.3857 19.0327H21.3765V34.0002H33.3765V14.2866C33.3765 12.646 32.114 11.3179 30.5544 11.3179Z" fill="currentColor"/>
      <path d="M30.0499 5.99979H27.0543L26.3021 8.99979H30.8021L30.0499 5.99979Z" fill="currentColor"/>
    </g>
  </g>
</svg>
