<svg width="40" height="40" viewBox="0 0 40 40" fill="none" xmlns="http://www.w3.org/2000/svg" data-seed-icon="true" data-seed-icon-version="0.3.4">
  <g>
    <g>
      <path d="M7.99844 17C6.61805 17 5.5 15.8795 5.5 14.5C5.5 13.1174 6.61805 12 7.99844 12C9.38195 12 10.5 13.1174 10.5 14.5C10.5 15.8795 9.38195 17 7.99844 17Z" fill="currentColor"/>
      <path d="M16 17C14.6205 17 13.5 15.8795 13.5 14.5C13.5 13.1174 14.6205 12 16 12C17.3795 12 18.5 13.1174 18.5 14.5C18.5 15.8795 17.3795 17 16 17Z" fill="currentColor"/>
      <path d="M21.5 14.5C21.5 15.8795 22.6181 17 24.0016 17C25.3819 17 26.5 15.8795 26.5 14.5C26.5 13.1174 25.3819 12 24.0016 12C22.6181 12 21.5 13.1174 21.5 14.5Z" fill="currentColor"/>
      <path d="M31.9984 17C30.6181 17 29.5 15.8795 29.5 14.5C29.5 13.1174 30.6181 12 31.9984 12C33.3819 12 34.5 13.1174 34.5 14.5C34.5 15.8795 33.3819 17 31.9984 17Z" fill="currentColor"/>
      <path d="M5 29H11V22.3039C11 20.4794 9.65832 19 8.00125 19H7.99625C6.34168 19 5 20.4794 5 22.3039V29Z" fill="currentColor"/>
      <path d="M19 22.3039V29H13V22.3039C13 20.4794 14.3422 19 15.9975 19H16.0025C17.6578 19 19 20.4794 19 22.3039Z" fill="currentColor"/>
      <path d="M21 29H27V22.3039C27 20.4794 25.6583 19 24.0038 19H23.9987C22.3442 19 21 20.4794 21 22.3039V29Z" fill="currentColor"/>
      <path d="M35 29H29V22.3039C29 20.4794 30.3417 19 31.9987 19H32.0038C33.6583 19 35 20.4794 35 22.3039V29Z" fill="currentColor"/>
    </g>
  </g>
</svg>
