<svg width="40" height="40" viewBox="0 0 40 40" fill="none" xmlns="http://www.w3.org/2000/svg" data-seed-icon="true" data-seed-icon-version="0.3.4">
  <g>
    <g>
      <path d="M18.8795 12.553C19.0129 12.8749 19.1757 13.1655 19.3645 13.4374C19.4757 13.5945 19.5899 13.7431 19.707 13.8956C19.7647 13.9706 19.823 14.0466 19.8821 14.1249L19.9598 14.009C20.1385 13.7435 20.4229 13.3207 20.647 12.928C20.8749 12.5343 21.0409 12.0812 21.1255 11.5937C21.1907 11.1968 21.2004 10.7999 21.1158 10.3812C21.0572 10.0875 20.9498 9.77809 20.8554 9.55934C20.7154 9.24373 20.289 8.58436 19.8463 8C19.5272 8.44999 18.9706 9.28123 18.7883 9.79684C18.5637 10.4218 18.4823 11.0656 18.619 11.7343C18.6776 12.028 18.7688 12.2968 18.8795 12.553Z" fill="currentColor"/>
      <path d="M17.0955 15.778C16.8123 15.703 16.5291 15.603 16.2492 15.4686C15.6047 15.1624 15.1196 14.7124 14.7388 14.1686C14.423 13.7218 14.0747 12.8093 13.8989 12.303C14.6639 12.3374 15.481 12.4249 15.8325 12.5155C16.0701 12.578 16.3957 12.6905 16.6789 12.8249C17.0793 13.0155 17.4048 13.2624 17.6945 13.5561C18.0493 13.9093 18.3228 14.3093 18.5116 14.7124C18.7297 15.1811 18.9315 15.7311 19.0291 15.9998C18.9201 15.9943 18.8139 15.9904 18.7089 15.9865C18.5163 15.9793 18.3278 15.9723 18.134 15.9561C17.7922 15.9311 17.4438 15.8748 17.0955 15.778Z" fill="currentColor"/>
      <path d="M23.4792 15.4813C23.196 15.6156 22.8704 15.725 22.6296 15.7875C22.2812 15.8781 21.4642 15.9688 20.6992 16C20.875 15.4938 21.2233 14.5844 21.5358 14.1344C21.9199 13.5938 22.4049 13.1438 23.0462 12.8344C23.3294 12.7032 23.6126 12.6032 23.8958 12.5282C24.2441 12.4313 24.5924 12.3751 24.9342 12.3469C25.1485 12.3291 25.3561 12.3224 25.5713 12.3154C25.6569 12.3127 25.7437 12.3099 25.8327 12.3063L25.8063 12.376C25.6986 12.6602 25.5093 13.1598 25.3118 13.5907C25.123 13.9969 24.8496 14.3938 24.4948 14.75C24.2051 15.0406 23.8796 15.2875 23.4792 15.4813Z" fill="currentColor"/>
      <path d="M28.5 20H11.5V18H28.5V20Z" fill="currentColor"/>
      <path d="M24.6291 31.9998H15.3713L12.9038 21.9998H27.0965L24.6291 31.9998Z" fill="currentColor"/>
    </g>
  </g>
</svg>
