<svg width="40" height="40" viewBox="0 0 40 40" fill="none" xmlns="http://www.w3.org/2000/svg" data-seed-icon="true" data-seed-icon-version="0.3.4">
  <g>
    <g>
      <path d="M17.4207 7.10323C17.4207 6.8688 17.6148 6.6773 17.8559 6.6773L22.1542 6.6806C22.3919 6.6905 22.576 6.8754 22.576 7.10653V7.95178H24.2765V7.10653C24.2765 5.96412 23.3694 5.04292 22.1843 5.0033L17.8559 5C16.6775 5 15.7201 5.94431 15.7201 7.10653V7.95178H17.4207V7.10323Z" fill="currentColor"/>
      <path d="M28.9967 12.1784H11V10.9105C11 10.2105 11.5758 9.64261 12.2855 9.64261C12.2901 9.64261 12.2948 9.64332 12.2998 9.64408C12.3056 9.64496 12.3118 9.64591 12.319 9.64591V9.64261H27.7547V9.64591C28.4443 9.66903 28.9967 10.2237 28.9967 10.9105V12.1784Z" fill="currentColor"/>
      <path d="M26 32.7886C26 31.6823 26.8938 30.7886 28 30.7886C29.1062 30.7886 30 31.6823 30 32.7886C30 33.8917 29.1062 34.7886 28 34.7886C26.8938 34.7886 26 33.8917 26 32.7886Z" fill="currentColor"/>
      <path d="M29 13.8687L27.7639 28.852C25.677 28.852 23.8681 30.7546 23.8681 32.8869C23.8681 33.6694 24.1092 34.3958 24.5209 35H12.714L11 13.8687H29Z" fill="currentColor"/>
    </g>
  </g>
</svg>
