<svg width="40" height="40" viewBox="0 0 40 40" fill="none" xmlns="http://www.w3.org/2000/svg" data-seed-icon="true" data-seed-icon-version="0.3.4">
  <g>
    <g>
      <path d="M6.55225 34H14.2432V30.0009H6.55225V34Z" fill="currentColor"/>
      <path d="M15.9263 28.4865C15.9263 30.6204 16.6641 32.5544 17.8554 33.9902H27.9993C29.1939 32.5544 29.9285 30.6204 29.9285 28.4865C29.9285 25.2413 28.2357 22.4551 25.8083 21.1996H20.0464C17.6191 22.4551 15.9263 25.2413 15.9263 28.4865Z" fill="currentColor"/>
      <path d="M27.5521 17.194H25.2685V16.4007H20.5894V19.5902H25.2685V18.7969H27.5138C27.4691 18.5642 27.4371 18.3282 27.4371 18.0856C27.4371 17.7775 27.4787 17.4825 27.5521 17.194Z" fill="currentColor"/>
      <path d="M32.4933 15.5157C30.5545 15.5157 28.9863 16.6663 28.9863 18.0856C28.9863 19.5049 30.5545 20.6555 32.4933 20.6555C34.4288 20.6555 36.0002 19.5049 36.0002 18.0856C36.0002 16.6663 34.4288 15.5157 32.4933 15.5157Z" fill="currentColor"/>
      <path d="M5 8.39945H15.9137V6H5V8.39945Z" fill="currentColor"/>
      <path d="M14.2496 28.3849L15.9137 9.99892H5L6.55864 28.3849H14.2496Z" fill="currentColor"/>
    </g>
  </g>
</svg>
