<svg width="40" height="40" viewBox="0 0 40 40" fill="none" xmlns="http://www.w3.org/2000/svg" data-seed-icon="true" data-seed-icon-version="0.3.4">
  <g>
    <g>
      <path d="M12.0545 9.76929L15.2153 6.67297C14.4568 6.18509 13.8221 5.80243 13.3826 5.57284L13.3034 5.53144C12.6219 5.17479 11.8792 4.78617 11.0551 5.13916C10.5376 5.36238 10.1632 5.84708 10.046 6.38917C9.89302 7.12897 10.1209 7.46379 10.8012 8.35347C10.8924 8.47145 11.3709 9.01036 12.0545 9.76929Z" fill="currentColor"/>
      <path d="M14.7326 12.683L18.4959 9.00022C17.93 8.58937 17.3835 8.19744 16.8636 7.82851L13.3936 11.2278C13.819 11.6892 14.2718 12.1805 14.7326 12.683Z" fill="currentColor"/>
      <path d="M29.9983 19.9447C29.9975 19.963 29.9966 19.9817 29.9966 20.0012C29.9966 20.0188 29.9974 20.0363 29.9982 20.0538C29.999 20.0714 29.9999 20.0889 29.9999 20.1064H29.9934C29.9738 21.2959 29.5148 22.4821 28.5936 23.3973C27.5519 24.4368 23.6848 27.3163 20.1138 29.8131L16.0773 25.859C17.5845 24.1913 19.007 22.616 19.5181 22.0229C20.0259 21.4362 20.2766 20.7187 20.2993 20.0012C20.2766 19.2805 20.0259 18.5631 19.5181 17.9763C19.007 17.3864 17.5845 15.808 16.0773 14.1402L20.1138 10.1861C23.6848 12.6829 27.5519 15.5656 28.5936 16.6052C29.5148 17.5203 29.9738 18.7034 29.9934 19.8928L29.9999 19.8928C29.9999 19.9099 29.9991 19.9272 29.9983 19.9447Z" fill="currentColor"/>
      <path d="M13.3956 28.7734L16.8659 32.1692C17.3857 31.8003 17.9323 31.4083 18.4979 31.001L14.7349 27.3147C14.5318 27.5361 14.3303 27.7554 14.1319 27.9713L14.131 27.9722C13.8796 28.2458 13.6334 28.5137 13.3956 28.7734Z" fill="currentColor"/>
      <path d="M10.0464 33.611C9.89344 32.8712 10.1213 32.5364 10.8016 31.6467C10.8928 31.5287 11.3713 30.9898 12.0549 30.2309L15.2157 33.3272C14.4572 33.8119 13.8225 34.1978 13.383 34.4273C13.3567 34.4411 13.3303 34.4549 13.3038 34.4687C12.6223 34.8254 11.8796 35.214 11.0556 34.861C10.538 34.6378 10.1604 34.1531 10.0464 33.611Z" fill="currentColor"/>
    </g>
  </g>
</svg>
