<svg width="40" height="40" viewBox="0 0 40 40" fill="none" xmlns="http://www.w3.org/2000/svg" data-seed-icon="true" data-seed-icon-version="0.3.4">
  <g>
    <g>
      <path d="M18.0152 20.0672V16.2246C18.0184 14.3771 19.5093 12.8801 21.3452 12.8801C22.2665 12.8801 23.103 13.2568 23.702 13.8661C23.8745 13.6564 24.034 13.4468 24.1219 13.3092C24.9195 12.0382 24.8674 10.5411 24.1512 9.19478C23.4579 7.90084 22.1818 7.08189 20.7333 7.00655C20.6519 7.00328 20.5705 7 20.4891 7C18.7411 7 17.1525 7.98601 16.3355 9.46667C15.5152 7.98601 13.9266 7 12.1786 7C12.0972 7 12.0158 7.00328 11.9344 7.00655C10.4826 7.08189 9.20656 7.90084 8.51646 9.19478C7.79706 10.5411 7.83286 12.1168 8.60109 13.4075C8.72805 13.6171 8.8843 13.8235 9.09588 14.0593L16.3322 22.0981" fill="currentColor"/>
      <path d="M32.999 22.9793C32.999 22.9662 32.999 22.9531 32.999 22.94C32.999 22.0097 32.2503 21.253 31.3258 21.253C30.4306 21.253 29.7079 21.9638 29.6591 22.8516C29.6135 21.9638 28.8876 21.253 27.9957 21.253C27.0908 21.253 26.3551 21.9802 26.3258 22.8811C26.2932 21.9802 25.5608 21.253 24.6559 21.253C23.8063 21.253 23.1129 21.8918 23.0022 22.7173V16.2443C23.0022 16.241 23.0055 16.2377 23.0055 16.2345C23.0055 16.2312 23.0022 16.2312 23.0022 16.2279C23.0022 16.2214 23.0022 16.2181 23.0022 16.2148C22.9925 15.2976 22.2503 14.5573 21.3388 14.5573C20.4404 14.5573 19.7145 15.2747 19.6787 16.169C19.6787 16.1788 19.6721 16.1853 19.6721 16.1919V27.3263L17.8915 25.2626C17.527 24.8302 17.0094 24.614 16.4918 24.614C16.137 24.614 15.7822 24.7221 15.4729 24.9317C15.4143 24.9677 15.3622 25.0071 15.3102 25.0464C15.3102 25.0464 15.3069 25.0464 15.3069 25.0496C14.9651 25.3215 14.734 25.7212 14.6884 26.1798C14.6135 26.6875 14.7372 27.2182 15.0953 27.6375L19.6591 33H33.0022V23.035C33.0022 23.0186 32.999 22.999 32.999 22.9793Z" fill="currentColor"/>
    </g>
  </g>
</svg>
