<svg width="40" height="40" viewBox="0 0 40 40" fill="none" xmlns="http://www.w3.org/2000/svg" data-seed-icon="true" data-seed-icon-version="0.3.4">
  <g>
    <g>
      <path d="M24.1408 7.40902L22.7541 8.36605L18.2098 8.36279L16.8263 7.40576C16.8231 7.40413 16.8206 7.40169 16.8182 7.39925C16.8158 7.39681 16.8133 7.39437 16.8101 7.39274L16.7515 7.35368L16.7547 7.34717C16.5041 7.1486 16.3413 6.84587 16.3413 6.50081C16.3413 5.90186 16.8263 5.41683 17.4253 5.41683C17.6336 5.41683 17.8257 5.47868 17.9917 5.58285L17.995 5.57959L19.4272 6.4943L19.4305 5.12061C19.4305 4.53792 19.9025 4.06592 20.4819 4.06592C21.0679 4.06592 21.5366 4.53792 21.5366 5.12061V6.50081L22.9754 5.58285L22.9787 5.5861C23.1414 5.48193 23.3368 5.42008 23.5451 5.42008C24.144 5.42008 24.6291 5.90837 24.6258 6.50732C24.6258 6.85238 24.4631 7.15511 24.2124 7.35368L24.2157 7.35693L24.1571 7.39925C24.1538 7.40088 24.1514 7.40251 24.1489 7.40413C24.1465 7.40576 24.144 7.40739 24.1408 7.40902Z" fill="currentColor"/>
      <path d="M24.0659 10.0327L17.0314 10.0295L19.8895 25.8661H21.1004L24.0659 10.0327Z" fill="currentColor"/>
      <path d="M12.526 14.2545L13.4375 12.8417C13.4391 12.8385 13.4407 12.836 13.4424 12.8336C13.444 12.8311 13.4456 12.8287 13.4472 12.8254L13.483 12.7636L13.4798 12.7603C13.636 12.4804 13.6686 12.1386 13.5384 11.8196C13.3073 11.2695 12.6758 11.0058 12.1224 11.2369C11.9303 11.3183 11.7741 11.4485 11.6601 11.6047H11.6569L10.6836 13.0045L10.1562 11.7317C9.93161 11.1946 9.31312 10.9407 8.77601 11.1653C8.24216 11.3866 7.98825 12.0019 8.2096 12.539L8.73695 13.8085L7.06377 13.5156V13.5188C6.87171 13.4895 6.66989 13.5058 6.47784 13.5839C5.92445 13.815 5.66078 14.4498 5.8919 14.9999C6.02536 15.3189 6.29229 15.537 6.60153 15.6249L6.59828 15.6282L6.66664 15.6445C6.67201 15.6445 6.67542 15.6454 6.67847 15.6463C6.68097 15.6471 6.68324 15.6477 6.68617 15.6477L8.33005 15.9993L12.526 14.2545Z" fill="currentColor"/>
      <path d="M7.85479 18.0175L14.3457 15.3189L17.7702 31.2337L16.6504 31.6991L7.85479 18.0175Z" fill="currentColor"/>
      <path d="M27.4738 17.871L26.5623 16.455C26.5591 16.4485 26.5558 16.4452 26.5526 16.4387L26.5168 16.3801L26.52 16.3769C26.3638 16.0969 26.3312 15.7551 26.4614 15.4361C26.6925 14.8827 27.3273 14.6223 27.8774 14.8534C28.0695 14.9316 28.2257 15.065 28.3397 15.2213L28.3429 15.218L29.3162 16.6178L29.8468 15.3482C30.0682 14.8111 30.6867 14.554 31.2238 14.7786C31.7609 15.0032 32.0116 15.6184 31.7902 16.1555L31.2629 17.4251L32.936 17.1321L32.9393 17.1353C33.1281 17.1028 33.3299 17.1223 33.522 17.2004C34.0754 17.4316 34.3358 18.0631 34.1079 18.6165C33.9744 18.9355 33.7075 19.1503 33.3983 19.2382L33.4015 19.2447L33.3299 19.2577C33.3281 19.2596 33.3252 19.2604 33.3219 19.2613C33.3194 19.262 33.3165 19.2628 33.3136 19.2642L31.6665 19.6126L27.4738 17.871Z" fill="currentColor"/>
      <path d="M32.1287 21.7447L25.6379 19.0429L22.2134 34.9609L23.3332 35.4264L32.1287 21.7447Z" fill="currentColor"/>
    </g>
  </g>
</svg>
