<svg width="40" height="40" viewBox="0 0 40 40" fill="none" xmlns="http://www.w3.org/2000/svg" data-seed-icon="true" data-seed-icon-version="0.3.4">
  <g>
    <g>
      <path fill-rule="evenodd" clip-rule="evenodd" d="M9 7H33V23H18V20H9V7ZM21 19C23.2091 19 25 17.2091 25 15C25 12.7909 23.2091 11 21 11C18.7909 11 17 12.7909 17 15C17 17.2091 18.7909 19 21 19ZM29 17C30.1046 17 31 16.1046 31 15C31 13.8954 30.1046 13 29 13C27.8954 13 27 13.8954 27 15C27 16.1046 27.8954 17 29 17ZM13 17C14.1046 17 15 16.1046 15 15C15 13.8954 14.1046 13 13 13C11.8954 13 11 13.8954 11 15C11 16.1046 11.8954 17 13 17Z" fill="currentColor"/>
      <path d="M16 24H7V22H16V24Z" fill="currentColor"/>
      <path d="M14 28H7V26H14V28Z" fill="currentColor"/>
      <path d="M7 32H14V30H7V32Z" fill="currentColor"/>
      <path d="M26 29H16V27H26V29Z" fill="currentColor"/>
      <path d="M16 33H26V31H16V33Z" fill="currentColor"/>
    </g>
  </g>
</svg>
