<svg width="40" height="40" viewBox="0 0 40 40" fill="none" xmlns="http://www.w3.org/2000/svg" data-seed-icon="true" data-seed-icon-version="0.3.4">
  <g>
    <g>
      <path fill-rule="evenodd" clip-rule="evenodd" d="M11.7846 16.6771L10.9513 18.002L10.948 18.0052H10.9513L10.948 18.0085H10.9513L12.2891 19.3464V19.3496L13.8744 18.5326L15.4988 19.2292L15.922 20.8535H16.7878V20.8503H16.9604V20.8535H17.8197L18.282 19.2292L19.9063 18.5326L21.446 19.3431L21.4493 19.3464H21.4526L21.4591 19.3496V19.3398L22.7904 18.0085H22.7937L22.7904 18.0052H22.7937L22.7904 18.002L21.9766 16.6771L22.6733 14.8184L24.3106 14.3594H24.3171V12.4974H24.3106L22.6733 12.0319L21.9766 10.1764L22.7937 8.84505L21.4591 7.51367V7.50391L21.4526 7.50716L21.4493 7.50391L21.4395 7.51367L19.9063 8.32096L18.282 7.62435L17.8197 6H15.922L15.4988 7.62435L13.8744 8.32096L12.2891 7.50391L10.948 8.84505L11.7846 10.1764L11.088 12.0319L9.46362 12.4974V14.3561L11.088 14.8184L11.7846 16.6771ZM16.892 10.0104C18.7768 10.0104 20.3067 11.5404 20.3067 13.4251C20.3067 15.3132 18.7768 16.8431 16.892 16.8431C15.004 16.8431 13.474 15.3132 13.474 13.4251C13.474 11.5404 15.004 10.0104 16.892 10.0104Z" fill="currentColor"/>
      <path d="M33 34H30V18H33V34Z" fill="currentColor"/>
      <path d="M25 34H28V22H25V34Z" fill="currentColor"/>
      <path d="M20 34H23V26H20V34Z" fill="currentColor"/>
      <path fill-rule="evenodd" clip-rule="evenodd" d="M14.2096 23.0866C14.5286 23.4544 14.776 23.8809 14.9388 24.3496L16.485 24.7728V26.5078L14.9388 26.9375C14.776 27.403 14.5286 27.8262 14.2129 28.194L14.6165 29.7467L13.1126 30.6159L11.9831 29.4993C11.7422 29.5482 11.4948 29.5742 11.2409 29.5742C10.987 29.5742 10.7396 29.5482 10.4987 29.4993L9.3724 30.6159L7.87174 29.7467L8.27539 28.2005C7.95638 27.8294 7.70573 27.4062 7.54297 26.9342L6 26.5078V24.7728L7.53971 24.3496C7.70573 23.8809 7.95312 23.4544 8.27213 23.0833L7.87174 21.5339L9.3724 20.668L10.4922 21.7812C10.7363 21.7357 10.9837 21.7064 11.2409 21.7064C11.4948 21.7064 11.7422 21.7357 11.9831 21.7812L13.1126 20.668L14.6165 21.5339L14.2096 23.0866ZM9.05339 25.6419C9.05339 26.8496 10.0332 27.8294 11.2409 27.8294C12.4486 27.8294 13.4284 26.8496 13.4284 25.6419C13.4284 24.4342 12.4486 23.4544 11.2409 23.4544C10.0332 23.4544 9.05339 24.4342 9.05339 25.6419Z" fill="currentColor"/>
    </g>
  </g>
</svg>
