<svg width="40" height="40" viewBox="0 0 40 40" fill="none" xmlns="http://www.w3.org/2000/svg" data-seed-icon="true" data-seed-icon-version="0.3.4">
  <g>
    <g>
      <path d="M30.3192 14.181C27.767 17.8931 28.4646 22.3284 28.4646 22.3284C28.4646 22.3284 34.1277 22.555 37.2122 18.9494C40.8389 14.7174 39.9562 10.3921 39.7743 10.0956C39.5892 9.79567 33.2153 9.96562 30.3192 14.181Z" fill="currentColor"/>
      <path d="M0 21.6024V21.6324C0 24.7248 2.30427 27.1707 5.43504 27.1707C7.43185 27.1707 8.65506 26.4309 9.76918 25.2613L8.5625 24.0317C7.64674 24.8914 6.80702 25.4179 5.49454 25.4179C3.45145 25.4179 1.97037 23.7084 1.97037 21.6024V21.5724C1.97037 19.4631 3.46467 17.787 5.47801 17.787C6.71776 17.787 7.61698 18.3101 8.48646 19.1099L9.69314 17.7103C8.66829 16.724 7.47813 16.0342 5.49454 16.0342C2.27452 16.0342 0 18.5401 0 21.6024Z" fill="currentColor"/>
      <path fill-rule="evenodd" clip-rule="evenodd" d="M10.9722 21.6024V21.6324C10.9722 24.6615 13.2632 27.1707 16.5427 27.1707C19.8223 27.1707 22.1431 24.6315 22.1431 21.6024V21.5724C22.1431 18.5401 19.8553 16.0342 16.5725 16.0342C13.293 16.0342 10.9722 18.57 10.9722 21.6024ZM20.176 21.6024V21.6324C20.176 23.7251 18.6949 25.4179 16.5725 25.4179C14.4534 25.4179 12.9425 23.6918 12.9425 21.6024V21.5724C12.9425 19.4798 14.4203 17.787 16.5427 17.787C18.6652 17.787 20.176 19.5097 20.176 21.6024Z" fill="currentColor"/>
      <path d="M23.0854 28.0435L25.1847 26.2541C25.9484 25.6209 26.2691 25.251 26.2691 24.7245C26.2691 24.218 25.8559 23.8781 25.3368 23.8781C24.8013 23.8781 24.3417 24.2014 23.9153 24.7878L23.1185 24.1547C23.6838 23.3516 24.312 22.8418 25.3963 22.8418C26.6063 22.8418 27.4328 23.5849 27.4328 24.6346C27.4328 25.4643 27.0493 25.9908 26.1336 26.7472L24.6029 28.0102H27.4791V28.9999H23.0854V28.0435Z" fill="currentColor"/>
    </g>
  </g>
</svg>
