<svg width="40" height="40" viewBox="0 0 40 40" fill="none" xmlns="http://www.w3.org/2000/svg" data-seed-icon="true" data-seed-icon-version="0.3.4">
  <g>
    <g>
      <path fill-rule="evenodd" clip-rule="evenodd" d="M20.1578 9.44317C20.026 9.26265 19.7811 9.19213 19.537 9.12184C19.3565 9.06985 19.1764 9.018 19.0429 8.92187C18.913 8.8264 18.8099 8.67325 18.706 8.51894C18.5639 8.3078 18.4203 8.09447 18.2044 8.02371C18.0016 7.95788 17.7695 8.04124 17.5339 8.12587C17.3537 8.19062 17.1714 8.2561 16.9985 8.2561C16.8257 8.2561 16.6434 8.19062 16.4631 8.12587C16.2275 8.04124 15.9954 7.95788 15.7926 8.02371C15.5767 8.09447 15.4331 8.3078 15.291 8.51894C15.1871 8.67325 15.0841 8.8264 14.9541 8.92187C14.8208 9.01788 14.641 9.06973 14.4609 9.12165C14.217 9.192 13.9725 9.26249 13.8424 9.44317C13.7128 9.62136 13.7204 9.87279 13.7281 10.1253C13.7338 10.3134 13.7395 10.5021 13.6885 10.6617C13.6397 10.8121 13.5277 10.9553 13.4142 11.1004C13.2576 11.3006 13.0981 11.5044 13.0981 11.7357C13.0981 11.9663 13.2567 12.1696 13.4129 12.3699C13.5269 12.516 13.6395 12.6605 13.6885 12.8128C13.7395 12.971 13.7338 13.1594 13.7281 13.3477C13.7204 13.6006 13.7128 13.8531 13.8424 14.0313C13.9718 14.211 14.2144 14.2807 14.4571 14.3504C14.6384 14.4025 14.8198 14.4546 14.9541 14.5526C14.9915 14.58 15.0249 14.6193 15.0591 14.6594C15.068 14.6699 15.0769 14.6804 15.086 14.6908C15.154 14.7691 15.2179 14.8573 15.2821 14.9459C15.3543 15.0456 15.4271 15.146 15.5068 15.2341L14.571 17.5391L15.4974 17.3507L16.0847 18.0039L17.0708 15.278L18.06 18.0039L18.6504 17.3507L19.5768 17.5391L18.5907 15.1147C18.6198 15.0744 18.6484 15.0333 18.6769 14.9923C18.7835 14.839 18.8889 14.6874 19.0178 14.5809C19.0225 14.5777 19.0264 14.5722 19.0304 14.5667C19.0343 14.5612 19.0382 14.5557 19.0429 14.5526C19.1774 14.4545 19.359 14.4024 19.5408 14.3502C19.7836 14.2806 20.0267 14.2109 20.1578 14.0313C20.2867 13.8541 20.2788 13.6033 20.2709 13.3518C20.265 13.1622 20.259 12.9721 20.3116 12.8128C20.3607 12.6605 20.4733 12.516 20.5873 12.3699C20.7435 12.1696 20.902 11.9663 20.902 11.7357C20.902 11.5044 20.7426 11.3006 20.586 11.1004C20.4725 10.9553 20.3605 10.8121 20.3116 10.6617C20.259 10.501 20.265 10.3107 20.2709 10.1212C20.2788 9.87006 20.2867 9.62039 20.1578 9.44317ZM16.9985 9.64416C18.1542 9.64416 19.0932 10.58 19.0932 11.7357C19.0932 12.8945 18.1542 13.8303 16.9985 13.8303C15.8429 13.8303 14.907 12.8945 14.907 11.7357C14.907 10.58 15.8429 9.64416 16.9985 9.64416Z" fill="currentColor"/>
      <path fill-rule="evenodd" clip-rule="evenodd" d="M11 31V22H23V27H25V4L9 4.00326V33H18.9837V31H11ZM11 6H23V20H11V6Z" fill="currentColor"/>
      <path d="M31 16C31 16.5508 30.5508 17 30 17C29.4453 17 29 16.5508 29 16C29 15.4453 29.4453 15 30 15C30.5508 15 31 15.4453 31 16Z" fill="currentColor"/>
      <path d="M33 36V29H21V36H33Z" fill="currentColor"/>
      <path d="M33 19V21H27V19H33Z" fill="currentColor"/>
    </g>
  </g>
</svg>
