<svg width="40" height="40" viewBox="0 0 40 40" fill="none" xmlns="http://www.w3.org/2000/svg" data-seed-icon="true" data-seed-icon-version="0.3.4">
  <g>
    <g>
      <path d="M12.8385 7.01543C12.9304 7.39236 13.0933 7.89927 13.2948 8.33794C13.5793 8.96507 13.9437 9.47197 14.3763 9.92689C14.9037 10.4793 15.4933 10.905 16.0948 11.1974C16.7881 11.5386 17.603 11.8538 18 12.0097C17.9793 11.5223 17.9733 11.0772 17.9378 10.6093C17.8963 10.0731 17.8133 9.53371 17.6711 8.98781C17.5585 8.5459 17.4133 8.10398 17.2119 7.66531C16.7585 6.66125 16.0919 5.90414 15.2859 5.3095C14.6222 4.8156 13.2741 4.2762 12.5244 4C12.5689 5.19253 12.7022 6.46954 12.8385 7.01543Z" fill="currentColor"/>
      <path d="M18 15.9903C17.2503 16.2664 15.8992 16.8058 15.2355 17.2998C14.4326 17.8944 13.7659 18.6515 13.3096 19.6556C13.1111 20.0942 12.9629 20.5361 12.8533 20.9781C12.7111 21.524 12.6252 22.0634 12.5837 22.5995C12.5511 23.0674 12.5452 23.5126 12.5244 24C12.9215 23.844 13.7363 23.5256 14.4296 23.1877C15.0311 22.8952 15.6207 22.4695 16.1452 21.9171C16.5777 21.4622 16.9452 20.9553 17.2296 20.3282C17.4281 19.8895 17.5911 19.3826 17.6859 19.0057C17.8222 18.4598 17.9526 17.1828 18 15.9903Z" fill="currentColor"/>
      <path d="M10.3141 15.5551C10.6341 15.7045 11.0963 15.8702 11.5289 15.9612C12.1481 16.0944 12.7378 16.0815 13.3274 15.9742C14.0474 15.8475 14.72 15.5843 15.3067 15.2301C15.9822 14.8239 16.717 14.2943 17.0785 14.0376C16.7259 13.7581 16.4089 13.4884 16.0563 13.2317C15.6563 12.9393 15.2237 12.6826 14.7496 12.4746C14.3704 12.2992 13.9674 12.1594 13.5348 12.0652C12.5422 11.854 11.5911 11.9807 10.6637 12.3284C9.89926 12.6176 8.66667 13.4852 8 13.9791C8.86519 14.6712 9.84593 15.3406 10.3141 15.5551Z" fill="currentColor"/>
      <path d="M20 12H22V4H20V12Z" fill="currentColor"/>
      <path d="M20 22H22V14H20V22Z" fill="currentColor"/>
      <path d="M20 32H22V24H20V32Z" fill="currentColor"/>
      <path d="M24 16H26V8H24V16Z" fill="currentColor"/>
      <path d="M24 26H26V18H24V26Z" fill="currentColor"/>
      <path d="M24 36H26V28H24V36Z" fill="currentColor"/>
    </g>
  </g>
</svg>
