<svg width="40" height="40" viewBox="0 0 40 40" fill="none" xmlns="http://www.w3.org/2000/svg" data-seed-icon="true" data-seed-icon-version="0.3.4">
  <g>
    <g>
      <path d="M9.99834 16C8.61882 16 7.50146 14.8795 7.50146 13.5C7.50146 12.1174 8.61882 11 9.99834 11C11.381 11 12.4983 12.1174 12.4983 13.5C12.4983 14.8795 11.381 16 9.99834 16Z" fill="currentColor"/>
      <path d="M20 16C18.6205 16 17.5 14.8795 17.5 13.5C17.5 12.1174 18.6205 11 20 11C21.3795 11 22.5 12.1174 22.5 13.5C22.5 14.8795 21.3795 16 20 16Z" fill="currentColor"/>
      <path d="M27.5 13.5C27.5 14.8795 28.6174 16 30 16C31.3795 16 32.5 14.8795 32.5 13.5C32.5 12.1174 31.3795 11 30 11C28.6174 11 27.5 12.1174 27.5 13.5Z" fill="currentColor"/>
      <path d="M14 30H6V21.9647C6 19.7753 7.7889 18 9.99499 18H10.0017C12.2111 18 14 19.7753 14 21.9647V30Z" fill="currentColor"/>
      <path d="M24 30V21.9647C24 19.7753 22.2104 18 20.0033 18H19.9967C17.7896 18 16 19.7753 16 21.9647V30H24Z" fill="currentColor"/>
      <path d="M34 21.9647V30H26V21.9647C26 19.7753 27.7922 18 29.9983 18H30.005C32.2111 18 34 19.7753 34 21.9647Z" fill="currentColor"/>
    </g>
  </g>
</svg>
