<svg width="40" height="40" viewBox="0 0 40 40" fill="none" xmlns="http://www.w3.org/2000/svg" data-seed-icon="true" data-seed-icon-version="0.3.4">
  <g>
    <g>
      <path d="M34 20H20V6C12.2665 6 6 12.2665 6 20C6 27.7335 12.2665 34 20 34C27.7335 34 34 27.7335 34 20Z" fill="currentColor"/>
      <path d="M30.2449 8.94118L26.3493 15.5294H24.7215L28.6172 8.94118H30.2449ZM29.7914 15.5294C29.3346 15.5294 28.9678 15.1595 28.9678 14.7059C28.9678 14.2523 29.3346 13.8824 29.7914 13.8824C30.2449 13.8824 30.6149 14.2523 30.6149 14.7059C30.6149 15.1595 30.2449 15.5294 29.7914 15.5294ZM24.4706 9.76471C24.4706 9.31112 24.8405 8.94118 25.2941 8.94118C25.7477 8.94118 26.1176 9.31112 26.1176 9.76471C26.1176 10.2183 25.7477 10.5882 25.2941 10.5882C24.8405 10.5882 24.4706 10.2183 24.4706 9.76471ZM22 18H36C36 10.2665 29.7335 4 22 4" fill="currentColor"/>
    </g>
  </g>
</svg>
