<svg width="40" height="40" viewBox="0 0 40 40" fill="none" xmlns="http://www.w3.org/2000/svg" data-seed-icon="true" data-seed-icon-version="0.3.4">
  <g>
    <g>
      <path d="M18.6567 24.0482C18.6567 24.5731 19.1034 25 19.6555 25C20.2077 25 20.6567 24.5731 20.6567 24.0482C20.6567 23.5233 19.6555 22 19.6555 22C19.6555 22 18.6567 23.5233 18.6567 24.0482Z" fill="currentColor"/>
      <path d="M22.5393 28.3174C21.9872 28.3174 21.5405 27.8925 21.5405 27.3672C21.5405 26.8419 22.5393 25.3174 22.5393 25.3174C22.5393 25.3174 23.5405 26.8419 23.5405 27.3672C23.5405 27.8925 23.0914 28.3174 22.5393 28.3174Z" fill="currentColor"/>
      <path d="M18.8015 30.8076C18.2494 30.8076 17.8003 30.3827 17.8003 29.8574C17.8003 29.3321 18.8015 27.8076 18.8015 27.8076C18.8015 27.8076 19.8003 29.3321 19.8003 29.8574C19.8003 30.3827 19.3537 30.8076 18.8015 30.8076Z" fill="currentColor"/>
      <path fill-rule="evenodd" clip-rule="evenodd" d="M26.9204 28.092C26.9204 30.3771 26.6144 32.506 26.0838 34.3745H14.2778V23.6844C14.2778 20.7026 16.3774 19.1987 18.63 18.5705C18.6343 18.5684 18.6136 15.5032 18.5987 13.3745C18.5908 12.242 18.5845 11.3745 18.5845 11.3745H22.6138L25.6216 20.4097C25.8494 21.0119 26.0513 21.6564 26.2238 22.3302L26.2661 22.4702L26.2563 22.4637L26.2601 22.4792C26.471 23.3383 26.6372 24.2477 26.7501 25.1965C26.8609 26.1271 26.9204 27.0956 26.9204 28.092ZM20.6097 14.9577L20.5987 13.3745H21.1717L23.7367 21.0797L23.751 21.1175C23.9465 21.6341 24.1234 22.1952 24.2771 22.7904L24.3143 22.9418C24.6953 24.4893 24.9204 26.233 24.9204 28.092C24.9204 29.6181 24.7724 31.0579 24.5096 32.3745H16.2778V23.6844C16.2778 22.7157 16.5986 22.0951 17.0413 21.641C17.5268 21.143 18.2603 20.7499 19.1673 20.497L19.3525 20.4453L19.5245 20.3593C20.1195 19.9052 20.5543 19.1157 20.5909 18.9641C20.6023 18.9023 20.616 18.807 20.6197 18.7736C20.6252 18.7203 20.6273 18.6774 20.6278 18.6666C20.6293 18.6371 20.6297 18.6132 20.6299 18.607C20.6303 18.5888 20.6304 18.5721 20.6304 18.563L20.6306 18.4882C20.6306 18.4316 20.6303 18.3512 20.6299 18.2522C20.6291 18.0533 20.6276 17.7706 20.6256 17.433C20.6217 16.7573 20.6158 15.8571 20.6097 14.9577Z" fill="currentColor"/>
      <path d="M15.2778 13.9422H13.2778V5.37451H21.2778C22.6067 5.37451 23.6712 6.20425 24.088 7.37451C24.2112 7.72068 24.2778 8.09665 24.2778 8.48975V9.37451H15.2778V13.9422Z" fill="currentColor"/>
    </g>
  </g>
</svg>
