<svg width="40" height="40" viewBox="0 0 40 40" fill="none" xmlns="http://www.w3.org/2000/svg" data-seed-icon="true" data-seed-icon-version="0.3.4">
  <g>
    <g>
      <path d="M27.9562 7.69079C27.9844 7.13487 28 6.56908 28 6H12C12 6.56908 12.0156 7.13487 12.0438 7.69079C12.225 11.1053 12.9469 14.1842 14.0281 16.6151C15.4906 19.9112 17.6219 22 20 22C22.7312 22 25.1375 19.2566 26.5812 15.0789C27.325 12.9342 27.8094 10.4178 27.9562 7.69079Z" fill="currentColor"/>
      <path d="M29.9534 7.79835L29.9537 7.79185C29.9557 7.75224 29.9576 7.71257 29.9595 7.67285H32.9999V8.49967C32.9999 12.4523 30.9238 15.77 28.1458 16.615C28.2594 16.3262 28.3679 16.0321 28.4711 15.7335C28.6214 15.3002 28.7614 14.8545 28.8909 14.3974C30.1903 13.4013 31.1237 11.5294 31.3137 9.32324H29.8364C29.8866 8.82154 29.9256 8.31292 29.9534 7.79835Z" fill="currentColor"/>
      <path d="M18.6307 23.8478C19.07 23.9472 19.5264 24 20 24C20.4847 24 20.9528 23.943 21.4031 23.837C21.8072 27.0217 22.7501 30.3306 23.9702 31.5543H25.5V34H14.5V31.5543H16.0697C17.287 30.3335 18.2271 27.0272 18.6307 23.8478Z" fill="currentColor"/>
      <path d="M11.8621 16.6205C9.08005 15.7787 7 12.456 7 8.49967V7.67285H10.0405C10.0424 7.71257 10.0443 7.75224 10.0463 7.79185L10.0466 7.79681C10.074 8.31303 10.1131 8.82326 10.1634 9.3265H8.6862C8.87646 11.5325 9.81149 13.4054 11.113 14.3993C11.3333 15.174 11.5838 15.9162 11.8621 16.6205Z" fill="currentColor"/>
    </g>
  </g>
</svg>
